<svg xmlns="http://www.w3.org/2000/svg" width="1280" height="760" viewBox="0 0 1280 760" role="img" aria-labelledby="title desc">
  <title id="title">NICSI attached NDC locations across India</title>
  <desc id="desc">Map showing NICSI attached National Data Centres at Delhi, Guwahati, Bhubaneswar, Pune, and Hyderabad with rack capacity labels.</desc>
  <defs>
    <linearGradient id="bg" x1="0%" y1="0%" x2="100%" y2="0%">
      <stop offset="0%" stop-color="#4b1f63" />
      <stop offset="52%" stop-color="#233d8e" />
      <stop offset="100%" stop-color="#0c2f6f" />
    </linearGradient>
    <linearGradient id="panel" x1="0%" y1="0%" x2="100%" y2="100%">
      <stop offset="0%" stop-color="#1570d4" />
      <stop offset="100%" stop-color="#0956b0" />
    </linearGradient>
    <filter id="shadow" x="-20%" y="-20%" width="140%" height="140%">
      <feDropShadow dx="0" dy="8" stdDeviation="10" flood-color="#031a44" flood-opacity="0.28" />
    </filter>
    <style>
      .tile { fill:#d9d9dd; stroke:#f8fafc; stroke-width:2.4; rx:12; ry:12; }
      .island { fill:#d9d9dd; stroke:#f8fafc; stroke-width:2; }
      .label-title { font: 700 19px Arial, sans-serif; fill:#ffffff; }
      .label-sub { font: 400 16px Arial, sans-serif; fill:#ffffff; }
      .label-strong { font: 700 17px Arial, sans-serif; fill:#111827; }
      .label-light { font: 400 14px Arial, sans-serif; fill:#111827; }
      .server { fill:url(#panel); rx:8; ry:8; }
      .server-detail { stroke:#9ed0ff; stroke-width:2; stroke-linecap:round; opacity:0.9; }
    </style>
  </defs>

  <rect width="1280" height="760" fill="url(#bg)" />
  <path d="M0 0h210l432 760H0z" fill="#6c2674" opacity="0.24" />
  <path d="M0 760h1280V590c-122 34-250 43-378 27-112-14-210-18-309 3-135 30-264 25-395-8C123 598 59 594 0 604z" fill="#062557" opacity="0.18" />

  <g transform="translate(110,28) scale(0.88)">
    <g transform="translate(340,120)"><rect class="tile" width="70" height="52"/></g>
    <g transform="translate(418,120)"><rect class="tile" width="70" height="52"/></g>
    <g transform="translate(418,180)"><rect class="tile" width="70" height="52"/></g>
    <g transform="translate(496,180)"><rect class="tile" width="70" height="52"/></g>
    <g transform="translate(574,180)"><rect class="tile" width="70" height="52"/></g>
    <g transform="translate(652,180)"><rect class="tile" width="70" height="52"/></g>
    <g transform="translate(808,180)"><rect class="tile" width="70" height="52"/></g>

    <g transform="translate(340,240)"><rect class="tile" width="70" height="52"/></g>
    <g transform="translate(418,240)"><rect class="tile" width="70" height="52"/></g>
    <g transform="translate(496,240)"><rect class="tile" width="70" height="52"/></g>
    <g transform="translate(574,240)"><rect class="tile" width="70" height="52"/></g>
    <g transform="translate(652,240)"><rect class="tile" width="70" height="52"/></g>
    <g transform="translate(730,240)"><rect class="tile" width="70" height="52"/></g>
    <g transform="translate(808,240)"><rect class="tile" width="70" height="52"/></g>
    <g transform="translate(886,240)"><rect class="tile" width="70" height="52"/></g>

    <g transform="translate(262,300)"><rect class="tile" width="70" height="52"/></g>
    <g transform="translate(340,300)"><rect class="tile" width="70" height="52"/></g>
    <g transform="translate(652,300)"><rect class="tile" width="70" height="52"/></g>
    <g transform="translate(730,300)"><rect class="tile" width="70" height="52"/></g>
    <g transform="translate(808,300)"><rect class="tile" width="70" height="52"/></g>
    <g transform="translate(886,300)"><rect class="tile" width="70" height="52"/></g>

    <g transform="translate(262,360)"><rect class="tile" width="70" height="52"/></g>
    <g transform="translate(340,360)"><rect class="tile" width="70" height="52"/></g>
    <g transform="translate(418,360)"><rect class="tile" width="70" height="52"/></g>
    <g transform="translate(496,360)"><rect class="tile" width="70" height="52"/></g>
    <g transform="translate(808,360)"><rect class="tile" width="70" height="52"/></g>
    <g transform="translate(886,360)"><rect class="tile" width="70" height="52"/></g>

    <g transform="translate(262,420)"><rect class="tile" width="70" height="52"/></g>
    <g transform="translate(340,420)"><rect class="tile" width="70" height="52"/></g>
    <g transform="translate(418,420)"><rect class="tile" width="70" height="52"/></g>
    <g transform="translate(496,420)"><rect class="tile" width="70" height="52"/></g>

    <g transform="translate(184,480)"><rect class="tile" width="70" height="52"/></g>
    <g transform="translate(340,480)"><rect class="tile" width="70" height="52"/></g>
    <g transform="translate(418,480)"><rect class="tile" width="70" height="52"/></g>
    <g transform="translate(496,480)"><rect class="tile" width="70" height="52"/></g>

    <g transform="translate(496,540)"><rect class="tile" width="70" height="52"/></g>

    <path class="island" d="M993 532c6 6 10 12 9 18-2 6-9 8-16 5 2-7 4-15 7-23z" />
    <path class="island" d="M1004 573c5 4 8 10 6 15-1 5-7 6-12 3 1-6 3-12 6-18z" />
    <path class="island" d="M1001 610c5 5 6 11 3 15-3 4-8 5-12 2 2-6 5-11 9-17z" />
    <path class="island" d="M1023 646c6 5 8 11 6 17-2 5-8 7-13 4 1-7 3-13 7-21z" />
    <path class="island" d="M1016 682c7 5 12 10 13 16-2 6-9 8-17 4 1-7 2-13 4-20z" />
  </g>

  <g filter="url(#shadow)">
    <g transform="translate(388,158)">
      <rect class="server" x="0" y="16" width="18" height="52" />
      <rect class="server" x="20" y="8" width="24" height="64" />
      <rect class="server" x="48" y="0" width="30" height="76" />
      <rect class="server" x="82" y="8" width="24" height="64" />
      <rect class="server" x="110" y="16" width="18" height="52" />
      <g class="server-detail">
        <path d="M6 28h6M6 37h6M6 46h6M6 55h6" />
        <path d="M26 22h12M26 33h12M26 44h12M26 55h12M26 66h12" />
        <path d="M58 16h10M58 28h10M58 40h10M58 52h10M58 64h10" />
        <path d="M88 22h12M88 33h12M88 44h12M88 55h12M88 66h12" />
        <path d="M116 28h6M116 37h6M116 46h6M116 55h6" />
      </g>
    </g>
    <g transform="translate(866,230)">
      <rect class="server" x="0" y="16" width="18" height="52" />
      <rect class="server" x="20" y="8" width="24" height="64" />
      <rect class="server" x="48" y="0" width="30" height="76" />
      <rect class="server" x="82" y="8" width="24" height="64" />
      <rect class="server" x="110" y="16" width="18" height="52" />
      <g class="server-detail">
        <path d="M6 28h6M6 37h6M6 46h6M6 55h6" />
        <path d="M26 22h12M26 33h12M26 44h12M26 55h12M26 66h12" />
        <path d="M58 16h10M58 28h10M58 40h10M58 52h10M58 64h10" />
        <path d="M88 22h12M88 33h12M88 44h12M88 55h12M88 66h12" />
        <path d="M116 28h6M116 37h6M116 46h6M116 55h6" />
      </g>
    </g>
    <g transform="translate(710,386)">
      <rect class="server" x="0" y="16" width="18" height="52" />
      <rect class="server" x="20" y="8" width="24" height="64" />
      <rect class="server" x="48" y="0" width="30" height="76" />
      <rect class="server" x="82" y="8" width="24" height="64" />
      <rect class="server" x="110" y="16" width="18" height="52" />
      <g class="server-detail">
        <path d="M6 28h6M6 37h6M6 46h6M6 55h6" />
        <path d="M26 22h12M26 33h12M26 44h12M26 55h12M26 66h12" />
        <path d="M58 16h10M58 28h10M58 40h10M58 52h10M58 64h10" />
        <path d="M88 22h12M88 33h12M88 44h12M88 55h12M88 66h12" />
        <path d="M116 28h6M116 37h6M116 46h6M116 55h6" />
      </g>
    </g>
    <g transform="translate(360,462)">
      <rect class="server" x="0" y="16" width="18" height="52" />
      <rect class="server" x="20" y="8" width="24" height="64" />
      <rect class="server" x="48" y="0" width="30" height="76" />
      <rect class="server" x="82" y="8" width="24" height="64" />
      <rect class="server" x="110" y="16" width="18" height="52" />
      <g class="server-detail">
        <path d="M6 28h6M6 37h6M6 46h6M6 55h6" />
        <path d="M26 22h12M26 33h12M26 44h12M26 55h12M26 66h12" />
        <path d="M58 16h10M58 28h10M58 40h10M58 52h10M58 64h10" />
        <path d="M88 22h12M88 33h12M88 44h12M88 55h12M88 66h12" />
        <path d="M116 28h6M116 37h6M116 46h6M116 55h6" />
      </g>
    </g>
    <g transform="translate(520,488)">
      <rect class="server" x="0" y="16" width="18" height="52" />
      <rect class="server" x="20" y="8" width="24" height="64" />
      <rect class="server" x="48" y="0" width="30" height="76" />
      <rect class="server" x="82" y="8" width="24" height="64" />
      <rect class="server" x="110" y="16" width="18" height="52" />
      <g class="server-detail">
        <path d="M6 28h6M6 37h6M6 46h6M6 55h6" />
        <path d="M26 22h12M26 33h12M26 44h12M26 55h12M26 66h12" />
        <path d="M58 16h10M58 28h10M58 40h10M58 52h10M58 64h10" />
        <path d="M88 22h12M88 33h12M88 44h12M88 55h12M88 66h12" />
        <path d="M116 28h6M116 37h6M116 46h6M116 55h6" />
      </g>
    </g>
  </g>

  <text x="382" y="312" class="label-strong">NDC, Delhi(2011)</text>
  <text x="420" y="340" class="label-light">474 Racks</text>

  <text x="820" y="198" class="label-title">NDC Guwahati (2025)</text>
  <text x="828" y="232" class="label-sub">191 Racks</text>
  <text x="772" y="258" class="label-sub">(expandable to 400)</text>

  <text x="748" y="592" class="label-title">NDC, Bhubaneswar (2018)</text>
  <text x="842" y="624" class="label-sub">271 Racks</text>

  <text x="88" y="664" class="label-title">NDC, Pune (2010)</text>
  <text x="154" y="700" class="label-sub">175 Racks</text>

  <text x="592" y="702" class="label-title">NDC, Hyderabad (2008)</text>
  <text x="610" y="738" class="label-sub">221 Racks</text>
</svg>
