<svg xmlns="http://www.w3.org/2000/svg" width="36" height="24" viewBox="0 0 36 24" role="img" aria-label="India flag">
  <rect width="36" height="24" fill="#fff"/>
  <rect width="36" height="8" y="0" fill="#FF9933"/>
  <rect width="36" height="8" y="16" fill="#138808"/>
  <circle cx="18" cy="12" r="2.6" fill="none" stroke="#000080" stroke-width="0.7"/>
  <circle cx="18" cy="12" r="0.4" fill="#000080"/>
  <g stroke="#000080" stroke-width="0.35" stroke-linecap="round">
    <line x1="18" y1="12" x2="18" y2="9.4"/>
    <line x1="18" y1="12" x2="18" y2="14.6"/>
    <line x1="18" y1="12" x2="15.4" y2="12"/>
    <line x1="18" y1="12" x2="20.6" y2="12"/>
    <line x1="18" y1="12" x2="16.16" y2="10.16"/>
    <line x1="18" y1="12" x2="19.84" y2="13.84"/>
    <line x1="18" y1="12" x2="19.84" y2="10.16"/>
    <line x1="18" y1="12" x2="16.16" y2="13.84"/>
    <line x1="18" y1="12" x2="17.33" y2="9.49"/>
    <line x1="18" y1="12" x2="18.67" y2="14.51"/>
    <line x1="18" y1="12" x2="15.49" y2="11.33"/>
    <line x1="18" y1="12" x2="20.51" y2="12.67"/>
    <line x1="18" y1="12" x2="16.9" y2="9.66"/>
    <line x1="18" y1="12" x2="19.1" y2="14.34"/>
    <line x1="18" y1="12" x2="15.66" y2="10.9"/>
    <line x1="18" y1="12" x2="20.34" y2="13.1"/>
    <line x1="18" y1="12" x2="17.02" y2="9.58"/>
    <line x1="18" y1="12" x2="18.98" y2="14.42"/>
    <line x1="18" y1="12" x2="15.58" y2="11.02"/>
    <line x1="18" y1="12" x2="20.42" y2="12.98"/>
    <line x1="18" y1="12" x2="16.45" y2="9.9"/>
    <line x1="18" y1="12" x2="19.55" y2="14.1"/>
    <line x1="18" y1="12" x2="15.9" y2="10.45"/>
    <line x1="18" y1="12" x2="20.1" y2="13.55"/>
  </g>
</svg>
