<svg width="635" height="87" viewBox="0 0 635 87" fill="none" xmlns="http://www.w3.org/2000/svg">
<path d="M194.652 24H191.572L184.598 13.462V24H181.518V8.622H184.598L191.572 19.182V8.622H194.652V24ZM196.904 17.862C196.904 16.63 197.146 15.5373 197.63 14.584C198.128 13.6307 198.796 12.8973 199.632 12.384C200.482 11.8707 201.428 11.614 202.47 11.614C203.379 11.614 204.171 11.7973 204.846 12.164C205.535 12.5307 206.085 12.9927 206.496 13.55V11.812H209.598V24H206.496V22.218C206.1 22.79 205.55 23.2667 204.846 23.648C204.156 24.0147 203.357 24.198 202.448 24.198C201.421 24.198 200.482 23.934 199.632 23.406C198.796 22.878 198.128 22.1373 197.63 21.184C197.146 20.216 196.904 19.1087 196.904 17.862ZM206.496 17.906C206.496 17.158 206.349 16.52 206.056 15.992C205.762 15.4493 205.366 15.0387 204.868 14.76C204.369 14.4667 203.834 14.32 203.262 14.32C202.69 14.32 202.162 14.4593 201.678 14.738C201.194 15.0167 200.798 15.4273 200.49 15.97C200.196 16.498 200.05 17.1287 200.05 17.862C200.05 18.5953 200.196 19.2407 200.49 19.798C200.798 20.3407 201.194 20.7587 201.678 21.052C202.176 21.3453 202.704 21.492 203.262 21.492C203.834 21.492 204.369 21.3527 204.868 21.074C205.366 20.7807 205.762 20.37 206.056 19.842C206.349 19.2993 206.496 18.654 206.496 17.906ZM216.192 14.342V20.238C216.192 20.6487 216.287 20.9493 216.478 21.14C216.683 21.316 217.021 21.404 217.49 21.404H218.92V24H216.984C214.388 24 213.09 22.7387 213.09 20.216V14.342H211.638V11.812H213.09V8.798H216.192V11.812H218.92V14.342H216.192ZM222.697 10.36C222.155 10.36 221.7 10.1913 221.333 9.854C220.981 9.502 220.805 9.06933 220.805 8.556C220.805 8.04267 220.981 7.61733 221.333 7.28C221.7 6.928 222.155 6.752 222.697 6.752C223.24 6.752 223.687 6.928 224.039 7.28C224.406 7.61733 224.589 8.04267 224.589 8.556C224.589 9.06933 224.406 9.502 224.039 9.854C223.687 10.1913 223.24 10.36 222.697 10.36ZM224.215 11.812V24H221.135V11.812H224.215ZM232.67 24.198C231.497 24.198 230.441 23.9413 229.502 23.428C228.564 22.9 227.823 22.1593 227.28 21.206C226.752 20.2527 226.488 19.1527 226.488 17.906C226.488 16.6593 226.76 15.5593 227.302 14.606C227.86 13.6527 228.615 12.9193 229.568 12.406C230.522 11.878 231.585 11.614 232.758 11.614C233.932 11.614 234.995 11.878 235.948 12.406C236.902 12.9193 237.65 13.6527 238.192 14.606C238.75 15.5593 239.028 16.6593 239.028 17.906C239.028 19.1527 238.742 20.2527 238.17 21.206C237.613 22.1593 236.85 22.9 235.882 23.428C234.929 23.9413 233.858 24.198 232.67 24.198ZM232.67 21.514C233.228 21.514 233.748 21.382 234.232 21.118C234.731 20.8393 235.127 20.4287 235.42 19.886C235.714 19.3433 235.86 18.6833 235.86 17.906C235.86 16.7473 235.552 15.86 234.936 15.244C234.335 14.6133 233.594 14.298 232.714 14.298C231.834 14.298 231.094 14.6133 230.492 15.244C229.906 15.86 229.612 16.7473 229.612 17.906C229.612 19.0647 229.898 19.9593 230.47 20.59C231.057 21.206 231.79 21.514 232.67 21.514ZM248.042 11.636C249.494 11.636 250.667 12.098 251.562 13.022C252.456 13.9313 252.904 15.2073 252.904 16.85V24H249.824V17.268C249.824 16.3 249.582 15.5593 249.098 15.046C248.614 14.518 247.954 14.254 247.118 14.254C246.267 14.254 245.592 14.518 245.094 15.046C244.61 15.5593 244.368 16.3 244.368 17.268V24H241.288V11.812H244.368V13.33C244.778 12.802 245.299 12.3913 245.93 12.098C246.575 11.79 247.279 11.636 248.042 11.636ZM255.04 17.862C255.04 16.63 255.282 15.5373 255.766 14.584C256.265 13.6307 256.932 12.8973 257.768 12.384C258.619 11.8707 259.565 11.614 260.606 11.614C261.516 11.614 262.308 11.7973 262.982 12.164C263.672 12.5307 264.222 12.9927 264.632 13.55V11.812H267.734V24H264.632V22.218C264.236 22.79 263.686 23.2667 262.982 23.648C262.293 24.0147 261.494 24.198 260.584 24.198C259.558 24.198 258.619 23.934 257.768 23.406C256.932 22.878 256.265 22.1373 255.766 21.184C255.282 20.216 255.04 19.1087 255.04 17.862ZM264.632 17.906C264.632 17.158 264.486 16.52 264.192 15.992C263.899 15.4493 263.503 15.0387 263.004 14.76C262.506 14.4667 261.97 14.32 261.398 14.32C260.826 14.32 260.298 14.4593 259.814 14.738C259.33 15.0167 258.934 15.4273 258.626 15.97C258.333 16.498 258.186 17.1287 258.186 17.862C258.186 18.5953 258.333 19.2407 258.626 19.798C258.934 20.3407 259.33 20.7587 259.814 21.052C260.313 21.3453 260.841 21.492 261.398 21.492C261.97 21.492 262.506 21.3527 263.004 21.074C263.503 20.7807 263.899 20.37 264.192 19.842C264.486 19.2993 264.632 18.654 264.632 17.906ZM273.823 7.72V24H270.743V7.72H273.823ZM285.188 8.644V24H282.108V8.644H285.188ZM294.985 11.636C296.437 11.636 297.61 12.098 298.505 13.022C299.4 13.9313 299.847 15.2073 299.847 16.85V24H296.767V17.268C296.767 16.3 296.525 15.5593 296.041 15.046C295.557 14.518 294.897 14.254 294.061 14.254C293.21 14.254 292.536 14.518 292.037 15.046C291.553 15.5593 291.311 16.3 291.311 17.268V24H288.231V11.812H291.311V13.33C291.722 12.802 292.242 12.3913 292.873 12.098C293.518 11.79 294.222 11.636 294.985 11.636ZM308.364 14.342H306.23V24H303.106V14.342H301.72V11.812H303.106V11.196C303.106 9.7 303.531 8.6 304.382 7.896C305.232 7.192 306.516 6.862 308.232 6.906V9.502C307.484 9.48733 306.963 9.612 306.67 9.876C306.376 10.14 306.23 10.6167 306.23 11.306V11.812H308.364V14.342ZM315.772 24.198C314.598 24.198 313.542 23.9413 312.604 23.428C311.665 22.9 310.924 22.1593 310.382 21.206C309.854 20.2527 309.59 19.1527 309.59 17.906C309.59 16.6593 309.861 15.5593 310.404 14.606C310.961 13.6527 311.716 12.9193 312.67 12.406C313.623 11.878 314.686 11.614 315.86 11.614C317.033 11.614 318.096 11.878 319.05 12.406C320.003 12.9193 320.751 13.6527 321.294 14.606C321.851 15.5593 322.13 16.6593 322.13 17.906C322.13 19.1527 321.844 20.2527 321.272 21.206C320.714 22.1593 319.952 22.9 318.984 23.428C318.03 23.9413 316.96 24.198 315.772 24.198ZM315.772 21.514C316.329 21.514 316.85 21.382 317.334 21.118C317.832 20.8393 318.228 20.4287 318.522 19.886C318.815 19.3433 318.962 18.6833 318.962 17.906C318.962 16.7473 318.654 15.86 318.038 15.244C317.436 14.6133 316.696 14.298 315.816 14.298C314.936 14.298 314.195 14.6133 313.594 15.244C313.007 15.86 312.714 16.7473 312.714 17.906C312.714 19.0647 313 19.9593 313.572 20.59C314.158 21.206 314.892 21.514 315.772 21.514ZM327.469 13.704C327.865 13.0587 328.378 12.5527 329.009 12.186C329.654 11.8193 330.388 11.636 331.209 11.636V14.87H330.395C329.427 14.87 328.694 15.0973 328.195 15.552C327.711 16.0067 327.469 16.7987 327.469 17.928V24H324.389V11.812H327.469V13.704ZM348.42 11.636C349.916 11.636 351.118 12.098 352.028 13.022C352.952 13.9313 353.414 15.2073 353.414 16.85V24H350.334V17.268C350.334 16.3147 350.092 15.5887 349.608 15.09C349.124 14.5767 348.464 14.32 347.628 14.32C346.792 14.32 346.124 14.5767 345.626 15.09C345.142 15.5887 344.9 16.3147 344.9 17.268V24H341.82V17.268C341.82 16.3147 341.578 15.5887 341.094 15.09C340.61 14.5767 339.95 14.32 339.114 14.32C338.263 14.32 337.588 14.5767 337.09 15.09C336.606 15.5887 336.364 16.3147 336.364 17.268V24H333.284V11.812H336.364V13.286C336.76 12.7727 337.266 12.3693 337.882 12.076C338.512 11.7827 339.202 11.636 339.95 11.636C340.903 11.636 341.754 11.8413 342.502 12.252C343.25 12.648 343.829 13.22 344.24 13.968C344.636 13.264 345.208 12.6993 345.956 12.274C346.718 11.8487 347.54 11.636 348.42 11.636ZM355.544 17.862C355.544 16.63 355.786 15.5373 356.27 14.584C356.769 13.6307 357.436 12.8973 358.272 12.384C359.123 11.8707 360.069 11.614 361.11 11.614C362.02 11.614 362.812 11.7973 363.486 12.164C364.176 12.5307 364.726 12.9927 365.136 13.55V11.812H368.238V24H365.136V22.218C364.74 22.79 364.19 23.2667 363.486 23.648C362.797 24.0147 361.998 24.198 361.088 24.198C360.062 24.198 359.123 23.934 358.272 23.406C357.436 22.878 356.769 22.1373 356.27 21.184C355.786 20.216 355.544 19.1087 355.544 17.862ZM365.136 17.906C365.136 17.158 364.99 16.52 364.696 15.992C364.403 15.4493 364.007 15.0387 363.508 14.76C363.01 14.4667 362.474 14.32 361.902 14.32C361.33 14.32 360.802 14.4593 360.318 14.738C359.834 15.0167 359.438 15.4273 359.13 15.97C358.837 16.498 358.69 17.1287 358.69 17.862C358.69 18.5953 358.837 19.2407 359.13 19.798C359.438 20.3407 359.834 20.7587 360.318 21.052C360.817 21.3453 361.345 21.492 361.902 21.492C362.474 21.492 363.01 21.3527 363.508 21.074C364.007 20.7807 364.403 20.37 364.696 19.842C364.99 19.2993 365.136 18.654 365.136 17.906ZM374.833 14.342V20.238C374.833 20.6487 374.928 20.9493 375.119 21.14C375.324 21.316 375.661 21.404 376.131 21.404H377.561V24H375.625C373.029 24 371.731 22.7387 371.731 20.216V14.342H370.279V11.812H371.731V8.798H374.833V11.812H377.561V14.342H374.833ZM381.338 10.36C380.795 10.36 380.34 10.1913 379.974 9.854C379.622 9.502 379.446 9.06933 379.446 8.556C379.446 8.04267 379.622 7.61733 379.974 7.28C380.34 6.928 380.795 6.752 381.338 6.752C381.88 6.752 382.328 6.928 382.68 7.28C383.046 7.61733 383.23 8.04267 383.23 8.556C383.23 9.06933 383.046 9.502 382.68 9.854C382.328 10.1913 381.88 10.36 381.338 10.36ZM382.856 11.812V24H379.776V11.812H382.856ZM385.107 17.906C385.107 16.6447 385.364 15.5447 385.877 14.606C386.39 13.6527 387.102 12.9193 388.011 12.406C388.92 11.878 389.962 11.614 391.135 11.614C392.646 11.614 393.892 11.9953 394.875 12.758C395.872 13.506 396.54 14.562 396.877 15.926H393.555C393.379 15.398 393.078 14.9873 392.653 14.694C392.242 14.386 391.729 14.232 391.113 14.232C390.233 14.232 389.536 14.5547 389.023 15.2C388.51 15.8307 388.253 16.7327 388.253 17.906C388.253 19.0647 388.51 19.9667 389.023 20.612C389.536 21.2427 390.233 21.558 391.113 21.558C392.36 21.558 393.174 21.0007 393.555 19.886H396.877C396.54 21.206 395.872 22.2547 394.875 23.032C393.878 23.8093 392.631 24.198 391.135 24.198C389.962 24.198 388.92 23.9413 388.011 23.428C387.102 22.9 386.39 22.1667 385.877 21.228C385.364 20.2747 385.107 19.1673 385.107 17.906ZM403.797 24.198C402.8 24.198 401.905 24.022 401.113 23.67C400.321 23.3033 399.691 22.812 399.221 22.196C398.767 21.58 398.517 20.898 398.473 20.15H401.575C401.634 20.6193 401.861 21.008 402.257 21.316C402.668 21.624 403.174 21.778 403.775 21.778C404.362 21.778 404.817 21.6607 405.139 21.426C405.477 21.1913 405.645 20.8907 405.645 20.524C405.645 20.128 405.44 19.8347 405.029 19.644C404.633 19.4387 403.995 19.2187 403.115 18.984C402.206 18.764 401.458 18.5367 400.871 18.302C400.299 18.0673 399.801 17.708 399.375 17.224C398.965 16.74 398.759 16.0873 398.759 15.266C398.759 14.5913 398.95 13.9753 399.331 13.418C399.727 12.8607 400.285 12.4207 401.003 12.098C401.737 11.7753 402.595 11.614 403.577 11.614C405.029 11.614 406.188 11.9807 407.053 12.714C407.919 13.4327 408.395 14.408 408.483 15.64H405.535C405.491 15.156 405.286 14.7747 404.919 14.496C404.567 14.2027 404.091 14.056 403.489 14.056C402.932 14.056 402.499 14.1587 402.191 14.364C401.898 14.5693 401.751 14.8553 401.751 15.222C401.751 15.6327 401.957 15.948 402.367 16.168C402.778 16.3733 403.416 16.586 404.281 16.806C405.161 17.026 405.887 17.2533 406.459 17.488C407.031 17.7227 407.523 18.0893 407.933 18.588C408.359 19.072 408.579 19.7173 408.593 20.524C408.593 21.228 408.395 21.8587 407.999 22.416C407.618 22.9733 407.061 23.4133 406.327 23.736C405.609 24.044 404.765 24.198 403.797 24.198ZM415.616 16.3C415.616 14.7893 415.953 13.44 416.628 12.252C417.317 11.0493 418.248 10.118 419.422 9.458C420.61 8.78333 421.937 8.446 423.404 8.446C425.12 8.446 426.623 8.886 427.914 9.766C429.204 10.646 430.106 11.8633 430.62 13.418H427.078C426.726 12.6847 426.227 12.1347 425.582 11.768C424.951 11.4013 424.218 11.218 423.382 11.218C422.487 11.218 421.688 11.4307 420.984 11.856C420.294 12.2667 419.752 12.8533 419.356 13.616C418.974 14.3787 418.784 15.2733 418.784 16.3C418.784 17.312 418.974 18.2067 419.356 18.984C419.752 19.7467 420.294 20.3407 420.984 20.766C421.688 21.1767 422.487 21.382 423.382 21.382C424.218 21.382 424.951 21.1987 425.582 20.832C426.227 20.4507 426.726 19.8933 427.078 19.16H430.62C430.106 20.7293 429.204 21.954 427.914 22.834C426.638 23.6993 425.134 24.132 423.404 24.132C421.937 24.132 420.61 23.802 419.422 23.142C418.248 22.4673 417.317 21.536 416.628 20.348C415.953 19.16 415.616 17.8107 415.616 16.3ZM444.58 17.642C444.58 18.082 444.551 18.478 444.492 18.83H435.582C435.656 19.71 435.964 20.3993 436.506 20.898C437.049 21.3967 437.716 21.646 438.508 21.646C439.652 21.646 440.466 21.1547 440.95 20.172H444.272C443.92 21.3453 443.246 22.3133 442.248 23.076C441.251 23.824 440.026 24.198 438.574 24.198C437.401 24.198 436.345 23.9413 435.406 23.428C434.482 22.9 433.756 22.1593 433.228 21.206C432.715 20.2527 432.458 19.1527 432.458 17.906C432.458 16.6447 432.715 15.5373 433.228 14.584C433.742 13.6307 434.46 12.8973 435.384 12.384C436.308 11.8707 437.372 11.614 438.574 11.614C439.733 11.614 440.767 11.8633 441.676 12.362C442.6 12.8607 443.312 13.572 443.81 14.496C444.324 15.4053 444.58 16.454 444.58 17.642ZM441.39 16.762C441.376 15.97 441.09 15.3393 440.532 14.87C439.975 14.386 439.293 14.144 438.486 14.144C437.724 14.144 437.078 14.3787 436.55 14.848C436.037 15.3027 435.722 15.9407 435.604 16.762H441.39ZM453.583 11.636C455.035 11.636 456.208 12.098 457.103 13.022C457.997 13.9313 458.445 15.2073 458.445 16.85V24H455.365V17.268C455.365 16.3 455.123 15.5593 454.639 15.046C454.155 14.518 453.495 14.254 452.659 14.254C451.808 14.254 451.133 14.518 450.635 15.046C450.151 15.5593 449.909 16.3 449.909 17.268V24H446.829V11.812H449.909V13.33C450.319 12.802 450.84 12.3913 451.471 12.098C452.116 11.79 452.82 11.636 453.583 11.636ZM464.959 14.342V20.238C464.959 20.6487 465.055 20.9493 465.245 21.14C465.451 21.316 465.788 21.404 466.257 21.404H467.687V24H465.751C463.155 24 461.857 22.7387 461.857 20.216V14.342H460.405V11.812H461.857V8.798H464.959V11.812H467.687V14.342H464.959ZM472.983 13.704C473.379 13.0587 473.892 12.5527 474.523 12.186C475.168 11.8193 475.901 11.636 476.723 11.636V14.87H475.909C474.941 14.87 474.207 15.0973 473.709 15.552C473.225 16.0067 472.983 16.7987 472.983 17.928V24H469.903V11.812H472.983V13.704ZM490.127 17.642C490.127 18.082 490.098 18.478 490.039 18.83H481.129C481.203 19.71 481.511 20.3993 482.053 20.898C482.596 21.3967 483.263 21.646 484.055 21.646C485.199 21.646 486.013 21.1547 486.497 20.172H489.819C489.467 21.3453 488.793 22.3133 487.795 23.076C486.798 23.824 485.573 24.198 484.121 24.198C482.948 24.198 481.892 23.9413 480.953 23.428C480.029 22.9 479.303 22.1593 478.775 21.206C478.262 20.2527 478.005 19.1527 478.005 17.906C478.005 16.6447 478.262 15.5373 478.775 14.584C479.289 13.6307 480.007 12.8973 480.931 12.384C481.855 11.8707 482.919 11.614 484.121 11.614C485.28 11.614 486.314 11.8633 487.223 12.362C488.147 12.8607 488.859 13.572 489.357 14.496C489.871 15.4053 490.127 16.454 490.127 17.642ZM486.937 16.762C486.923 15.97 486.637 15.3393 486.079 14.87C485.522 14.386 484.84 14.144 484.033 14.144C483.271 14.144 482.625 14.3787 482.097 14.848C481.584 15.3027 481.269 15.9407 481.151 16.762H486.937ZM502.92 24.154C501.849 24.154 500.881 23.9707 500.016 23.604C499.165 23.2373 498.49 22.7093 497.992 22.02C497.493 21.3307 497.236 20.5167 497.222 19.578H500.522C500.566 20.2087 500.786 20.7073 501.182 21.074C501.592 21.4407 502.15 21.624 502.854 21.624C503.572 21.624 504.137 21.4553 504.548 21.118C504.958 20.766 505.164 20.3113 505.164 19.754C505.164 19.2993 505.024 18.9253 504.746 18.632C504.467 18.3387 504.115 18.1113 503.69 17.95C503.279 17.774 502.707 17.5833 501.974 17.378C500.976 17.0847 500.162 16.7987 499.532 16.52C498.916 16.2267 498.38 15.794 497.926 15.222C497.486 14.6353 497.266 13.858 497.266 12.89C497.266 11.9807 497.493 11.1887 497.948 10.514C498.402 9.83933 499.04 9.326 499.862 8.974C500.683 8.60733 501.622 8.424 502.678 8.424C504.262 8.424 505.545 8.81267 506.528 9.59C507.525 10.3527 508.075 11.4233 508.178 12.802H504.79C504.76 12.274 504.533 11.8413 504.108 11.504C503.697 11.152 503.147 10.976 502.458 10.976C501.856 10.976 501.372 11.13 501.006 11.438C500.654 11.746 500.478 12.1933 500.478 12.78C500.478 13.1907 500.61 13.5353 500.874 13.814C501.152 14.078 501.49 14.298 501.886 14.474C502.296 14.6353 502.868 14.826 503.602 15.046C504.599 15.3393 505.413 15.6327 506.044 15.926C506.674 16.2193 507.217 16.6593 507.672 17.246C508.126 17.8327 508.354 18.6027 508.354 19.556C508.354 20.3773 508.141 21.14 507.716 21.844C507.29 22.548 506.667 23.1127 505.846 23.538C505.024 23.9487 504.049 24.154 502.92 24.154ZM522.354 17.642C522.354 18.082 522.325 18.478 522.266 18.83H513.356C513.429 19.71 513.737 20.3993 514.28 20.898C514.823 21.3967 515.49 21.646 516.282 21.646C517.426 21.646 518.24 21.1547 518.724 20.172H522.046C521.694 21.3453 521.019 22.3133 520.022 23.076C519.025 23.824 517.8 24.198 516.348 24.198C515.175 24.198 514.119 23.9413 513.18 23.428C512.256 22.9 511.53 22.1593 511.002 21.206C510.489 20.2527 510.232 19.1527 510.232 17.906C510.232 16.6447 510.489 15.5373 511.002 14.584C511.515 13.6307 512.234 12.8973 513.158 12.384C514.082 11.8707 515.145 11.614 516.348 11.614C517.507 11.614 518.541 11.8633 519.45 12.362C520.374 12.8607 521.085 13.572 521.584 14.496C522.097 15.4053 522.354 16.454 522.354 17.642ZM519.164 16.762C519.149 15.97 518.863 15.3393 518.306 14.87C517.749 14.386 517.067 14.144 516.26 14.144C515.497 14.144 514.852 14.3787 514.324 14.848C513.811 15.3027 513.495 15.9407 513.378 16.762H519.164ZM527.682 13.704C528.078 13.0587 528.591 12.5527 529.222 12.186C529.867 11.8193 530.601 11.636 531.422 11.636V14.87H530.608C529.64 14.87 528.907 15.0973 528.408 15.552C527.924 16.0067 527.682 16.7987 527.682 17.928V24H524.602V11.812H527.682V13.704ZM538.579 21.162L541.659 11.812H544.937L540.427 24H536.687L532.199 11.812H535.499L538.579 21.162ZM548.228 10.36C547.686 10.36 547.231 10.1913 546.864 9.854C546.512 9.502 546.336 9.06933 546.336 8.556C546.336 8.04267 546.512 7.61733 546.864 7.28C547.231 6.928 547.686 6.752 548.228 6.752C548.771 6.752 549.218 6.928 549.57 7.28C549.937 7.61733 550.12 8.04267 550.12 8.556C550.12 9.06933 549.937 9.502 549.57 9.854C549.218 10.1913 548.771 10.36 548.228 10.36ZM549.746 11.812V24H546.666V11.812H549.746ZM551.997 17.906C551.997 16.6447 552.254 15.5447 552.767 14.606C553.281 13.6527 553.992 12.9193 554.901 12.406C555.811 11.878 556.852 11.614 558.025 11.614C559.536 11.614 560.783 11.9953 561.765 12.758C562.763 13.506 563.43 14.562 563.767 15.926H560.445C560.269 15.398 559.969 14.9873 559.543 14.694C559.133 14.386 558.619 14.232 558.003 14.232C557.123 14.232 556.427 14.5547 555.913 15.2C555.4 15.8307 555.143 16.7327 555.143 17.906C555.143 19.0647 555.4 19.9667 555.913 20.612C556.427 21.2427 557.123 21.558 558.003 21.558C559.25 21.558 560.064 21.0007 560.445 19.886H563.767C563.43 21.206 562.763 22.2547 561.765 23.032C560.768 23.8093 559.521 24.198 558.025 24.198C556.852 24.198 555.811 23.9413 554.901 23.428C553.992 22.9 553.281 22.1667 552.767 21.228C552.254 20.2747 551.997 19.1673 551.997 17.906ZM577.354 17.642C577.354 18.082 577.325 18.478 577.266 18.83H568.356C568.429 19.71 568.737 20.3993 569.28 20.898C569.823 21.3967 570.49 21.646 571.282 21.646C572.426 21.646 573.24 21.1547 573.724 20.172H577.046C576.694 21.3453 576.019 22.3133 575.022 23.076C574.025 23.824 572.8 24.198 571.348 24.198C570.175 24.198 569.119 23.9413 568.18 23.428C567.256 22.9 566.53 22.1593 566.002 21.206C565.489 20.2527 565.232 19.1527 565.232 17.906C565.232 16.6447 565.489 15.5373 566.002 14.584C566.515 13.6307 567.234 12.8973 568.158 12.384C569.082 11.8707 570.145 11.614 571.348 11.614C572.507 11.614 573.541 11.8633 574.45 12.362C575.374 12.8607 576.085 13.572 576.584 14.496C577.097 15.4053 577.354 16.454 577.354 17.642ZM574.164 16.762C574.149 15.97 573.863 15.3393 573.306 14.87C572.749 14.386 572.067 14.144 571.26 14.144C570.497 14.144 569.852 14.3787 569.324 14.848C568.811 15.3027 568.495 15.9407 568.378 16.762H574.164ZM584.266 24.198C583.269 24.198 582.374 24.022 581.582 23.67C580.79 23.3033 580.159 22.812 579.69 22.196C579.235 21.58 578.986 20.898 578.942 20.15H582.044C582.103 20.6193 582.33 21.008 582.726 21.316C583.137 21.624 583.643 21.778 584.244 21.778C584.831 21.778 585.285 21.6607 585.608 21.426C585.945 21.1913 586.114 20.8907 586.114 20.524C586.114 20.128 585.909 19.8347 585.498 19.644C585.102 19.4387 584.464 19.2187 583.584 18.984C582.675 18.764 581.927 18.5367 581.34 18.302C580.768 18.0673 580.269 17.708 579.844 17.224C579.433 16.74 579.228 16.0873 579.228 15.266C579.228 14.5913 579.419 13.9753 579.8 13.418C580.196 12.8607 580.753 12.4207 581.472 12.098C582.205 11.7753 583.063 11.614 584.046 11.614C585.498 11.614 586.657 11.9807 587.522 12.714C588.387 13.4327 588.864 14.408 588.952 15.64H586.004C585.96 15.156 585.755 14.7747 585.388 14.496C585.036 14.2027 584.559 14.056 583.958 14.056C583.401 14.056 582.968 14.1587 582.66 14.364C582.367 14.5693 582.22 14.8553 582.22 15.222C582.22 15.6327 582.425 15.948 582.836 16.168C583.247 16.3733 583.885 16.586 584.75 16.806C585.63 17.026 586.356 17.2533 586.928 17.488C587.5 17.7227 587.991 18.0893 588.402 18.588C588.827 19.072 589.047 19.7173 589.062 20.524C589.062 21.228 588.864 21.8587 588.468 22.416C588.087 22.9733 587.529 23.4133 586.796 23.736C586.077 24.044 585.234 24.198 584.266 24.198ZM599.912 8.644V24H596.832V8.644H599.912ZM609.71 11.636C611.162 11.636 612.335 12.098 613.23 13.022C614.124 13.9313 614.572 15.2073 614.572 16.85V24H611.492V17.268C611.492 16.3 611.25 15.5593 610.766 15.046C610.282 14.518 609.622 14.254 608.786 14.254C607.935 14.254 607.26 14.518 606.762 15.046C606.278 15.5593 606.036 16.3 606.036 17.268V24H602.956V11.812H606.036V13.33C606.446 12.802 606.967 12.3913 607.598 12.098C608.243 11.79 608.947 11.636 609.71 11.636ZM616.708 17.906C616.708 16.6447 616.965 15.5447 617.478 14.606C617.992 13.6527 618.703 12.9193 619.612 12.406C620.522 11.878 621.563 11.614 622.736 11.614C624.247 11.614 625.494 11.9953 626.476 12.758C627.474 13.506 628.141 14.562 628.478 15.926H625.156C624.98 15.398 624.68 14.9873 624.254 14.694C623.844 14.386 623.33 14.232 622.714 14.232C621.834 14.232 621.138 14.5547 620.624 15.2C620.111 15.8307 619.854 16.7327 619.854 17.906C619.854 19.0647 620.111 19.9667 620.624 20.612C621.138 21.2427 621.834 21.558 622.714 21.558C623.961 21.558 624.775 21.0007 625.156 19.886H628.478C628.141 21.206 627.474 22.2547 626.476 23.032C625.479 23.8093 624.232 24.198 622.736 24.198C621.563 24.198 620.522 23.9413 619.612 23.428C618.703 22.9 617.992 22.1667 617.478 21.228C616.965 20.2747 616.708 19.1673 616.708 17.906ZM632.099 24.154C631.541 24.154 631.079 23.9853 630.713 23.648C630.361 23.296 630.185 22.8633 630.185 22.35C630.185 21.8367 630.361 21.4113 630.713 21.074C631.079 20.722 631.541 20.546 632.099 20.546C632.641 20.546 633.089 20.722 633.441 21.074C633.793 21.4113 633.969 21.8367 633.969 22.35C633.969 22.8633 633.793 23.296 633.441 23.648C633.089 23.9853 632.641 24.154 632.099 24.154Z" fill="white"/>
<path d="M185.598 56.348C184.446 55.22 183.546 53.786 182.898 52.046C182.262 50.306 181.944 48.428 181.944 46.412C181.944 44.348 182.28 42.422 182.952 40.634C183.636 38.834 184.608 37.352 185.868 36.188H187.578V36.35C186.234 37.61 185.22 39.128 184.536 40.904C183.864 42.668 183.528 44.504 183.528 46.412C183.528 48.272 183.846 50.048 184.482 51.74C185.13 53.432 186.072 54.914 187.308 56.186V56.348H185.598ZM196.976 50.21H191.504L190.496 53H188.768L193.304 40.526H195.194L199.712 53H197.984L196.976 50.21ZM196.508 48.878L194.24 42.542L191.972 48.878H196.508ZM215.992 44.09C215.644 43.358 215.14 42.794 214.48 42.398C213.82 41.99 213.052 41.786 212.176 41.786C211.3 41.786 210.508 41.99 209.8 42.398C209.104 42.794 208.552 43.37 208.144 44.126C207.748 44.87 207.55 45.734 207.55 46.718C207.55 47.702 207.748 48.566 208.144 49.31C208.552 50.054 209.104 50.63 209.8 51.038C210.508 51.434 211.3 51.632 212.176 51.632C213.4 51.632 214.408 51.266 215.2 50.534C215.992 49.802 216.454 48.812 216.586 47.564H211.582V46.232H218.332V47.492C218.236 48.524 217.912 49.472 217.36 50.336C216.808 51.188 216.082 51.866 215.182 52.37C214.282 52.862 213.28 53.108 212.176 53.108C211.012 53.108 209.95 52.838 208.99 52.298C208.03 51.746 207.268 50.984 206.704 50.012C206.152 49.04 205.876 47.942 205.876 46.718C205.876 45.494 206.152 44.396 206.704 43.424C207.268 42.44 208.03 41.678 208.99 41.138C209.95 40.586 211.012 40.31 212.176 40.31C213.508 40.31 214.684 40.64 215.704 41.3C216.736 41.96 217.486 42.89 217.954 44.09H215.992ZM224.799 53.162C223.875 53.162 223.035 52.952 222.279 52.532C221.535 52.112 220.947 51.518 220.515 50.75C220.095 49.97 219.885 49.07 219.885 48.05C219.885 47.042 220.101 46.154 220.533 45.386C220.977 44.606 221.577 44.012 222.333 43.604C223.089 43.184 223.935 42.974 224.871 42.974C225.807 42.974 226.653 43.184 227.409 43.604C228.165 44.012 228.759 44.6 229.191 45.368C229.635 46.136 229.857 47.03 229.857 48.05C229.857 49.07 229.629 49.97 229.173 50.75C228.729 51.518 228.123 52.112 227.355 52.532C226.587 52.952 225.735 53.162 224.799 53.162ZM224.799 51.722C225.387 51.722 225.939 51.584 226.455 51.308C226.971 51.032 227.385 50.618 227.697 50.066C228.021 49.514 228.183 48.842 228.183 48.05C228.183 47.258 228.027 46.586 227.715 46.034C227.403 45.482 226.995 45.074 226.491 44.81C225.987 44.534 225.441 44.396 224.853 44.396C224.253 44.396 223.701 44.534 223.197 44.81C222.705 45.074 222.309 45.482 222.009 46.034C221.709 46.586 221.559 47.258 221.559 48.05C221.559 48.854 221.703 49.532 221.991 50.084C222.291 50.636 222.687 51.05 223.179 51.326C223.671 51.59 224.211 51.722 224.799 51.722ZM235.683 51.488L238.743 43.136H240.489L236.619 53H234.711L230.841 43.136H232.605L235.683 51.488ZM251.101 47.69C251.101 48.002 251.083 48.332 251.047 48.68H243.163C243.223 49.652 243.553 50.414 244.153 50.966C244.765 51.506 245.503 51.776 246.367 51.776C247.075 51.776 247.663 51.614 248.131 51.29C248.611 50.954 248.947 50.51 249.139 49.958H250.903C250.639 50.906 250.111 51.68 249.319 52.28C248.527 52.868 247.543 53.162 246.367 53.162C245.431 53.162 244.591 52.952 243.847 52.532C243.115 52.112 242.539 51.518 242.119 50.75C241.699 49.97 241.489 49.07 241.489 48.05C241.489 47.03 241.693 46.136 242.101 45.368C242.509 44.6 243.079 44.012 243.811 43.604C244.555 43.184 245.407 42.974 246.367 42.974C247.303 42.974 248.131 43.178 248.851 43.586C249.571 43.994 250.123 44.558 250.507 45.278C250.903 45.986 251.101 46.79 251.101 47.69ZM249.409 47.348C249.409 46.724 249.271 46.19 248.995 45.746C248.719 45.29 248.341 44.948 247.861 44.72C247.393 44.48 246.871 44.36 246.295 44.36C245.467 44.36 244.759 44.624 244.171 45.152C243.595 45.68 243.265 46.412 243.181 47.348H249.409ZM254.901 44.738C255.189 44.174 255.597 43.736 256.125 43.424C256.665 43.112 257.319 42.956 258.087 42.956V44.648H257.655C255.819 44.648 254.901 45.644 254.901 47.636V53H253.263V43.136H254.901V44.738ZM264.784 42.956C265.984 42.956 266.956 43.322 267.7 44.054C268.444 44.774 268.816 45.818 268.816 47.186V53H267.196V47.42C267.196 46.436 266.95 45.686 266.458 45.17C265.966 44.642 265.294 44.378 264.442 44.378C263.578 44.378 262.888 44.648 262.372 45.188C261.868 45.728 261.616 46.514 261.616 47.546V53H259.978V43.136H261.616V44.54C261.94 44.036 262.378 43.646 262.93 43.37C263.494 43.094 264.112 42.956 264.784 42.956ZM283.353 42.956C284.121 42.956 284.805 43.118 285.405 43.442C286.005 43.754 286.479 44.228 286.827 44.864C287.175 45.5 287.349 46.274 287.349 47.186V53H285.729V47.42C285.729 46.436 285.483 45.686 284.991 45.17C284.511 44.642 283.857 44.378 283.029 44.378C282.177 44.378 281.499 44.654 280.995 45.206C280.491 45.746 280.239 46.532 280.239 47.564V53H278.619V47.42C278.619 46.436 278.373 45.686 277.881 45.17C277.401 44.642 276.747 44.378 275.919 44.378C275.067 44.378 274.389 44.654 273.885 45.206C273.381 45.746 273.129 46.532 273.129 47.564V53H271.491V43.136H273.129V44.558C273.453 44.042 273.885 43.646 274.425 43.37C274.977 43.094 275.583 42.956 276.243 42.956C277.071 42.956 277.803 43.142 278.439 43.514C279.075 43.886 279.549 44.432 279.861 45.152C280.137 44.456 280.593 43.916 281.229 43.532C281.865 43.148 282.573 42.956 283.353 42.956ZM299.036 47.69C299.036 48.002 299.018 48.332 298.982 48.68H291.098C291.158 49.652 291.488 50.414 292.088 50.966C292.7 51.506 293.438 51.776 294.302 51.776C295.01 51.776 295.598 51.614 296.066 51.29C296.546 50.954 296.882 50.51 297.074 49.958H298.838C298.574 50.906 298.046 51.68 297.254 52.28C296.462 52.868 295.478 53.162 294.302 53.162C293.366 53.162 292.526 52.952 291.782 52.532C291.05 52.112 290.474 51.518 290.054 50.75C289.634 49.97 289.424 49.07 289.424 48.05C289.424 47.03 289.628 46.136 290.036 45.368C290.444 44.6 291.014 44.012 291.746 43.604C292.49 43.184 293.342 42.974 294.302 42.974C295.238 42.974 296.066 43.178 296.786 43.586C297.506 43.994 298.058 44.558 298.442 45.278C298.838 45.986 299.036 46.79 299.036 47.69ZM297.344 47.348C297.344 46.724 297.206 46.19 296.93 45.746C296.654 45.29 296.276 44.948 295.796 44.72C295.328 44.48 294.806 44.36 294.23 44.36C293.402 44.36 292.694 44.624 292.106 45.152C291.53 45.68 291.2 46.412 291.116 47.348H297.344ZM306.005 42.956C307.205 42.956 308.177 43.322 308.921 44.054C309.665 44.774 310.037 45.818 310.037 47.186V53H308.417V47.42C308.417 46.436 308.171 45.686 307.679 45.17C307.187 44.642 306.515 44.378 305.663 44.378C304.799 44.378 304.109 44.648 303.593 45.188C303.089 45.728 302.837 46.514 302.837 47.546V53H301.199V43.136H302.837V44.54C303.161 44.036 303.599 43.646 304.151 43.37C304.715 43.094 305.333 42.956 306.005 42.956ZM314.71 44.486V50.3C314.71 50.78 314.812 51.122 315.016 51.326C315.22 51.518 315.574 51.614 316.078 51.614H317.284V53H315.808C314.896 53 314.212 52.79 313.756 52.37C313.3 51.95 313.072 51.26 313.072 50.3V44.486H311.794V43.136H313.072V40.652H314.71V43.136H317.284V44.486H314.71ZM328.37 53.162C327.446 53.162 326.606 52.952 325.85 52.532C325.106 52.112 324.518 51.518 324.086 50.75C323.666 49.97 323.456 49.07 323.456 48.05C323.456 47.042 323.672 46.154 324.104 45.386C324.548 44.606 325.148 44.012 325.904 43.604C326.66 43.184 327.506 42.974 328.442 42.974C329.378 42.974 330.224 43.184 330.98 43.604C331.736 44.012 332.33 44.6 332.762 45.368C333.206 46.136 333.428 47.03 333.428 48.05C333.428 49.07 333.2 49.97 332.744 50.75C332.3 51.518 331.694 52.112 330.926 52.532C330.158 52.952 329.306 53.162 328.37 53.162ZM328.37 51.722C328.958 51.722 329.51 51.584 330.026 51.308C330.542 51.032 330.956 50.618 331.268 50.066C331.592 49.514 331.754 48.842 331.754 48.05C331.754 47.258 331.598 46.586 331.286 46.034C330.974 45.482 330.566 45.074 330.062 44.81C329.558 44.534 329.012 44.396 328.424 44.396C327.824 44.396 327.272 44.534 326.768 44.81C326.276 45.074 325.88 45.482 325.58 46.034C325.28 46.586 325.13 47.258 325.13 48.05C325.13 48.854 325.274 49.532 325.562 50.084C325.862 50.636 326.258 51.05 326.75 51.326C327.242 51.59 327.782 51.722 328.37 51.722ZM339.595 44.486H337.525V53H335.887V44.486H334.609V43.136H335.887V42.434C335.887 41.33 336.169 40.526 336.733 40.022C337.309 39.506 338.227 39.248 339.487 39.248V40.616C338.767 40.616 338.257 40.76 337.957 41.048C337.669 41.324 337.525 41.786 337.525 42.434V43.136H339.595V44.486ZM347.942 40.454V53H346.304V40.454H347.942ZM355.54 42.956C356.74 42.956 357.712 43.322 358.456 44.054C359.2 44.774 359.572 45.818 359.572 47.186V53H357.952V47.42C357.952 46.436 357.706 45.686 357.214 45.17C356.722 44.642 356.05 44.378 355.198 44.378C354.334 44.378 353.644 44.648 353.128 45.188C352.624 45.728 352.372 46.514 352.372 47.546V53H350.734V43.136H352.372V44.54C352.696 44.036 353.134 43.646 353.686 43.37C354.25 43.094 354.868 42.956 355.54 42.956ZM361.635 48.032C361.635 47.024 361.839 46.142 362.247 45.386C362.655 44.618 363.213 44.024 363.921 43.604C364.641 43.184 365.445 42.974 366.333 42.974C367.101 42.974 367.815 43.154 368.475 43.514C369.135 43.862 369.639 44.324 369.987 44.9V39.68H371.643V53H369.987V51.146C369.663 51.734 369.183 52.22 368.547 52.604C367.911 52.976 367.167 53.162 366.315 53.162C365.439 53.162 364.641 52.946 363.921 52.514C363.213 52.082 362.655 51.476 362.247 50.696C361.839 49.916 361.635 49.028 361.635 48.032ZM369.987 48.05C369.987 47.306 369.837 46.658 369.537 46.106C369.237 45.554 368.829 45.134 368.313 44.846C367.809 44.546 367.251 44.396 366.639 44.396C366.027 44.396 365.469 44.54 364.965 44.828C364.461 45.116 364.059 45.536 363.759 46.088C363.459 46.64 363.309 47.288 363.309 48.032C363.309 48.788 363.459 49.448 363.759 50.012C364.059 50.564 364.461 50.99 364.965 51.29C365.469 51.578 366.027 51.722 366.639 51.722C367.251 51.722 367.809 51.578 368.313 51.29C368.829 50.99 369.237 50.564 369.537 50.012C369.837 49.448 369.987 48.794 369.987 48.05ZM375.257 41.534C374.945 41.534 374.681 41.426 374.465 41.21C374.249 40.994 374.141 40.73 374.141 40.418C374.141 40.106 374.249 39.842 374.465 39.626C374.681 39.41 374.945 39.302 375.257 39.302C375.557 39.302 375.809 39.41 376.013 39.626C376.229 39.842 376.337 40.106 376.337 40.418C376.337 40.73 376.229 40.994 376.013 41.21C375.809 41.426 375.557 41.534 375.257 41.534ZM376.049 43.136V53H374.411V43.136H376.049ZM378.229 48.032C378.229 47.024 378.433 46.142 378.841 45.386C379.249 44.618 379.807 44.024 380.515 43.604C381.235 43.184 382.033 42.974 382.909 42.974C383.773 42.974 384.523 43.16 385.159 43.532C385.795 43.904 386.269 44.372 386.581 44.936V43.136H388.237V53H386.581V51.164C386.257 51.74 385.771 52.22 385.123 52.604C384.487 52.976 383.743 53.162 382.891 53.162C382.015 53.162 381.223 52.946 380.515 52.514C379.807 52.082 379.249 51.476 378.841 50.696C378.433 49.916 378.229 49.028 378.229 48.032ZM386.581 48.05C386.581 47.306 386.431 46.658 386.131 46.106C385.831 45.554 385.423 45.134 384.907 44.846C384.403 44.546 383.845 44.396 383.233 44.396C382.621 44.396 382.063 44.54 381.559 44.828C381.055 45.116 380.653 45.536 380.353 46.088C380.053 46.64 379.903 47.288 379.903 48.032C379.903 48.788 380.053 49.448 380.353 50.012C380.653 50.564 381.055 50.99 381.559 51.29C382.063 51.578 382.621 51.722 383.233 51.722C383.845 51.722 384.403 51.578 384.907 51.29C385.423 50.99 385.831 50.564 386.131 50.012C386.431 49.448 386.581 48.794 386.581 48.05ZM397.442 41.786V45.98H402.014V47.33H397.442V51.65H402.554V53H395.804V40.436H402.554V41.786H397.442ZM409.838 42.956C411.038 42.956 412.01 43.322 412.754 44.054C413.498 44.774 413.87 45.818 413.87 47.186V53H412.25V47.42C412.25 46.436 412.004 45.686 411.512 45.17C411.02 44.642 410.348 44.378 409.496 44.378C408.632 44.378 407.942 44.648 407.426 45.188C406.922 45.728 406.67 46.514 406.67 47.546V53H405.032V43.136H406.67V44.54C406.994 44.036 407.432 43.646 407.984 43.37C408.548 43.094 409.166 42.956 409.838 42.956ZM418.544 44.486V50.3C418.544 50.78 418.646 51.122 418.85 51.326C419.054 51.518 419.408 51.614 419.912 51.614H421.118V53H419.642C418.73 53 418.046 52.79 417.59 52.37C417.134 51.95 416.906 51.26 416.906 50.3V44.486H415.628V43.136H416.906V40.652H418.544V43.136H421.118V44.486H418.544ZM432.103 47.69C432.103 48.002 432.085 48.332 432.049 48.68H424.165C424.225 49.652 424.555 50.414 425.155 50.966C425.767 51.506 426.505 51.776 427.369 51.776C428.077 51.776 428.665 51.614 429.133 51.29C429.613 50.954 429.949 50.51 430.141 49.958H431.905C431.641 50.906 431.113 51.68 430.321 52.28C429.529 52.868 428.545 53.162 427.369 53.162C426.433 53.162 425.593 52.952 424.849 52.532C424.117 52.112 423.541 51.518 423.121 50.75C422.701 49.97 422.491 49.07 422.491 48.05C422.491 47.03 422.695 46.136 423.103 45.368C423.511 44.6 424.081 44.012 424.813 43.604C425.557 43.184 426.409 42.974 427.369 42.974C428.305 42.974 429.133 43.178 429.853 43.586C430.573 43.994 431.125 44.558 431.509 45.278C431.905 45.986 432.103 46.79 432.103 47.69ZM430.411 47.348C430.411 46.724 430.273 46.19 429.997 45.746C429.721 45.29 429.343 44.948 428.863 44.72C428.395 44.48 427.873 44.36 427.297 44.36C426.469 44.36 425.761 44.624 425.173 45.152C424.597 45.68 424.267 46.412 424.183 47.348H430.411ZM435.903 44.738C436.191 44.174 436.599 43.736 437.127 43.424C437.667 43.112 438.321 42.956 439.089 42.956V44.648H438.657C436.821 44.648 435.903 45.644 435.903 47.636V53H434.265V43.136H435.903V44.738ZM442.618 44.954C442.942 44.39 443.422 43.922 444.058 43.55C444.706 43.166 445.456 42.974 446.308 42.974C447.184 42.974 447.976 43.184 448.684 43.604C449.404 44.024 449.968 44.618 450.376 45.386C450.784 46.142 450.988 47.024 450.988 48.032C450.988 49.028 450.784 49.916 450.376 50.696C449.968 51.476 449.404 52.082 448.684 52.514C447.976 52.946 447.184 53.162 446.308 53.162C445.468 53.162 444.724 52.976 444.076 52.604C443.44 52.22 442.954 51.746 442.618 51.182V57.68H440.98V43.136H442.618V44.954ZM449.314 48.032C449.314 47.288 449.164 46.64 448.864 46.088C448.564 45.536 448.156 45.116 447.64 44.828C447.136 44.54 446.578 44.396 445.966 44.396C445.366 44.396 444.808 44.546 444.292 44.846C443.788 45.134 443.38 45.56 443.068 46.124C442.768 46.676 442.618 47.318 442.618 48.05C442.618 48.794 442.768 49.448 443.068 50.012C443.38 50.564 443.788 50.99 444.292 51.29C444.808 51.578 445.366 51.722 445.966 51.722C446.578 51.722 447.136 51.578 447.64 51.29C448.156 50.99 448.564 50.564 448.864 50.012C449.164 49.448 449.314 48.788 449.314 48.032ZM454.782 44.738C455.07 44.174 455.478 43.736 456.006 43.424C456.546 43.112 457.2 42.956 457.968 42.956V44.648H457.536C455.7 44.648 454.782 45.644 454.782 47.636V53H453.144V43.136H454.782V44.738ZM460.705 41.534C460.393 41.534 460.129 41.426 459.913 41.21C459.697 40.994 459.589 40.73 459.589 40.418C459.589 40.106 459.697 39.842 459.913 39.626C460.129 39.41 460.393 39.302 460.705 39.302C461.005 39.302 461.257 39.41 461.461 39.626C461.677 39.842 461.785 40.106 461.785 40.418C461.785 40.73 461.677 40.994 461.461 41.21C461.257 41.426 461.005 41.534 460.705 41.534ZM461.497 43.136V53H459.859V43.136H461.497ZM467.78 53.162C467.024 53.162 466.346 53.036 465.746 52.784C465.146 52.52 464.672 52.16 464.324 51.704C463.976 51.236 463.784 50.702 463.748 50.102H465.44C465.488 50.594 465.716 50.996 466.124 51.308C466.544 51.62 467.09 51.776 467.762 51.776C468.386 51.776 468.878 51.638 469.238 51.362C469.598 51.086 469.778 50.738 469.778 50.318C469.778 49.886 469.586 49.568 469.202 49.364C468.818 49.148 468.224 48.938 467.42 48.734C466.688 48.542 466.088 48.35 465.62 48.158C465.164 47.954 464.768 47.66 464.432 47.276C464.108 46.88 463.946 46.364 463.946 45.728C463.946 45.224 464.096 44.762 464.396 44.342C464.696 43.922 465.122 43.592 465.674 43.352C466.226 43.1 466.856 42.974 467.564 42.974C468.656 42.974 469.538 43.25 470.21 43.802C470.882 44.354 471.242 45.11 471.29 46.07H469.652C469.616 45.554 469.406 45.14 469.022 44.828C468.65 44.516 468.146 44.36 467.51 44.36C466.922 44.36 466.454 44.486 466.106 44.738C465.758 44.99 465.584 45.32 465.584 45.728C465.584 46.052 465.686 46.322 465.89 46.538C466.106 46.742 466.37 46.91 466.682 47.042C467.006 47.162 467.45 47.3 468.014 47.456C468.722 47.648 469.298 47.84 469.742 48.032C470.186 48.212 470.564 48.488 470.876 48.86C471.2 49.232 471.368 49.718 471.38 50.318C471.38 50.858 471.23 51.344 470.93 51.776C470.63 52.208 470.204 52.55 469.652 52.802C469.112 53.042 468.488 53.162 467.78 53.162ZM482.693 47.69C482.693 48.002 482.675 48.332 482.639 48.68H474.755C474.815 49.652 475.145 50.414 475.745 50.966C476.357 51.506 477.095 51.776 477.959 51.776C478.667 51.776 479.255 51.614 479.723 51.29C480.203 50.954 480.539 50.51 480.731 49.958H482.495C482.231 50.906 481.703 51.68 480.911 52.28C480.119 52.868 479.135 53.162 477.959 53.162C477.023 53.162 476.183 52.952 475.439 52.532C474.707 52.112 474.131 51.518 473.711 50.75C473.291 49.97 473.081 49.07 473.081 48.05C473.081 47.03 473.285 46.136 473.693 45.368C474.101 44.6 474.671 44.012 475.403 43.604C476.147 43.184 476.999 42.974 477.959 42.974C478.895 42.974 479.723 43.178 480.443 43.586C481.163 43.994 481.715 44.558 482.099 45.278C482.495 45.986 482.693 46.79 482.693 47.69ZM481.001 47.348C481.001 46.724 480.863 46.19 480.587 45.746C480.311 45.29 479.933 44.948 479.453 44.72C478.985 44.48 478.463 44.36 477.887 44.36C477.059 44.36 476.351 44.624 475.763 45.152C475.187 45.68 474.857 46.412 474.773 47.348H481.001ZM498.402 43.136V53H496.764V51.542C496.452 52.046 496.014 52.442 495.45 52.73C494.898 53.006 494.286 53.144 493.614 53.144C492.846 53.144 492.156 52.988 491.544 52.676C490.932 52.352 490.446 51.872 490.086 51.236C489.738 50.6 489.564 49.826 489.564 48.914V43.136H491.184V48.698C491.184 49.67 491.43 50.42 491.922 50.948C492.414 51.464 493.086 51.722 493.938 51.722C494.814 51.722 495.504 51.452 496.008 50.912C496.512 50.372 496.764 49.586 496.764 48.554V43.136H498.402ZM505.973 42.956C507.173 42.956 508.145 43.322 508.889 44.054C509.633 44.774 510.005 45.818 510.005 47.186V53H508.385V47.42C508.385 46.436 508.139 45.686 507.647 45.17C507.155 44.642 506.483 44.378 505.631 44.378C504.767 44.378 504.077 44.648 503.561 45.188C503.057 45.728 502.805 46.514 502.805 47.546V53H501.167V43.136H502.805V44.54C503.129 44.036 503.567 43.646 504.119 43.37C504.683 43.094 505.301 42.956 505.973 42.956ZM512.069 48.032C512.069 47.024 512.273 46.142 512.681 45.386C513.089 44.618 513.647 44.024 514.355 43.604C515.075 43.184 515.879 42.974 516.767 42.974C517.535 42.974 518.249 43.154 518.909 43.514C519.569 43.862 520.073 44.324 520.421 44.9V39.68H522.077V53H520.421V51.146C520.097 51.734 519.617 52.22 518.981 52.604C518.345 52.976 517.601 53.162 516.749 53.162C515.873 53.162 515.075 52.946 514.355 52.514C513.647 52.082 513.089 51.476 512.681 50.696C512.273 49.916 512.069 49.028 512.069 48.032ZM520.421 48.05C520.421 47.306 520.271 46.658 519.971 46.106C519.671 45.554 519.263 45.134 518.747 44.846C518.243 44.546 517.685 44.396 517.073 44.396C516.461 44.396 515.903 44.54 515.399 44.828C514.895 45.116 514.493 45.536 514.193 46.088C513.893 46.64 513.743 47.288 513.743 48.032C513.743 48.788 513.893 49.448 514.193 50.012C514.493 50.564 514.895 50.99 515.399 51.29C515.903 51.578 516.461 51.722 517.073 51.722C517.685 51.722 518.243 51.578 518.747 51.29C519.263 50.99 519.671 50.564 519.971 50.012C520.271 49.448 520.421 48.794 520.421 48.05ZM533.845 47.69C533.845 48.002 533.827 48.332 533.791 48.68H525.907C525.967 49.652 526.297 50.414 526.897 50.966C527.509 51.506 528.247 51.776 529.111 51.776C529.819 51.776 530.407 51.614 530.875 51.29C531.355 50.954 531.691 50.51 531.883 49.958H533.647C533.383 50.906 532.855 51.68 532.063 52.28C531.271 52.868 530.287 53.162 529.111 53.162C528.175 53.162 527.335 52.952 526.591 52.532C525.859 52.112 525.283 51.518 524.863 50.75C524.443 49.97 524.233 49.07 524.233 48.05C524.233 47.03 524.437 46.136 524.845 45.368C525.253 44.6 525.823 44.012 526.555 43.604C527.299 43.184 528.151 42.974 529.111 42.974C530.047 42.974 530.875 43.178 531.595 43.586C532.315 43.994 532.867 44.558 533.251 45.278C533.647 45.986 533.845 46.79 533.845 47.69ZM532.153 47.348C532.153 46.724 532.015 46.19 531.739 45.746C531.463 45.29 531.085 44.948 530.605 44.72C530.137 44.48 529.615 44.36 529.039 44.36C528.211 44.36 527.503 44.624 526.915 45.152C526.339 45.68 526.009 46.412 525.925 47.348H532.153ZM537.645 44.738C537.933 44.174 538.341 43.736 538.869 43.424C539.409 43.112 540.063 42.956 540.831 42.956V44.648H540.399C538.563 44.648 537.645 45.644 537.645 47.636V53H536.007V43.136H537.645V44.738ZM557.385 53H555.747L549.159 43.01V53H547.521V40.436H549.159L555.747 50.408V40.436H557.385V53ZM561.815 40.454V53H560.177V40.454H561.815ZM563.995 46.718C563.995 45.494 564.271 44.396 564.823 43.424C565.375 42.44 566.125 41.672 567.073 41.12C568.033 40.568 569.095 40.292 570.259 40.292C571.627 40.292 572.821 40.622 573.841 41.282C574.861 41.942 575.605 42.878 576.073 44.09H574.111C573.763 43.334 573.259 42.752 572.599 42.344C571.951 41.936 571.171 41.732 570.259 41.732C569.383 41.732 568.597 41.936 567.901 42.344C567.205 42.752 566.659 43.334 566.263 44.09C565.867 44.834 565.669 45.71 565.669 46.718C565.669 47.714 565.867 48.59 566.263 49.346C566.659 50.09 567.205 50.666 567.901 51.074C568.597 51.482 569.383 51.686 570.259 51.686C571.171 51.686 571.951 51.488 572.599 51.092C573.259 50.684 573.763 50.102 574.111 49.346H576.073C575.605 50.546 574.861 51.476 573.841 52.136C572.821 52.784 571.627 53.108 570.259 53.108C569.095 53.108 568.033 52.838 567.073 52.298C566.125 51.746 565.375 50.984 564.823 50.012C564.271 49.04 563.995 47.942 563.995 46.718ZM577.989 56.348V56.186C579.225 54.914 580.161 53.432 580.797 51.74C581.445 50.048 581.769 48.272 581.769 46.412C581.769 44.504 581.427 42.668 580.743 40.904C580.071 39.128 579.063 37.61 577.719 36.35V36.188H579.429C580.689 37.352 581.655 38.834 582.327 40.634C583.011 42.422 583.353 44.348 583.353 46.412C583.353 48.428 583.029 50.306 582.381 52.046C581.745 53.786 580.851 55.22 579.699 56.348H577.989Z" fill="white"/>
<path d="M194.112 67.544V80H192.474V70.712L188.334 80H187.182L183.024 70.694V80H181.386V67.544H183.15L187.758 77.84L192.366 67.544H194.112ZM197.736 68.534C197.424 68.534 197.16 68.426 196.944 68.21C196.728 67.994 196.62 67.73 196.62 67.418C196.62 67.106 196.728 66.842 196.944 66.626C197.16 66.41 197.424 66.302 197.736 66.302C198.036 66.302 198.288 66.41 198.492 66.626C198.708 66.842 198.816 67.106 198.816 67.418C198.816 67.73 198.708 67.994 198.492 68.21C198.288 68.426 198.036 68.534 197.736 68.534ZM198.528 70.136V80H196.89V70.136H198.528ZM206.126 69.956C207.326 69.956 208.298 70.322 209.042 71.054C209.786 71.774 210.158 72.818 210.158 74.186V80H208.538V74.42C208.538 73.436 208.292 72.686 207.8 72.17C207.308 71.642 206.636 71.378 205.784 71.378C204.92 71.378 204.23 71.648 203.714 72.188C203.21 72.728 202.958 73.514 202.958 74.546V80H201.32V70.136H202.958V71.54C203.282 71.036 203.72 70.646 204.272 70.37C204.836 70.094 205.454 69.956 206.126 69.956ZM213.679 68.534C213.367 68.534 213.103 68.426 212.887 68.21C212.671 67.994 212.563 67.73 212.563 67.418C212.563 67.106 212.671 66.842 212.887 66.626C213.103 66.41 213.367 66.302 213.679 66.302C213.979 66.302 214.231 66.41 214.435 66.626C214.651 66.842 214.759 67.106 214.759 67.418C214.759 67.73 214.651 67.994 214.435 68.21C214.231 68.426 213.979 68.534 213.679 68.534ZM214.471 70.136V80H212.833V70.136H214.471ZM220.755 80.162C219.999 80.162 219.321 80.036 218.721 79.784C218.121 79.52 217.647 79.16 217.299 78.704C216.951 78.236 216.759 77.702 216.723 77.102H218.415C218.463 77.594 218.691 77.996 219.099 78.308C219.519 78.62 220.065 78.776 220.737 78.776C221.361 78.776 221.853 78.638 222.213 78.362C222.573 78.086 222.753 77.738 222.753 77.318C222.753 76.886 222.561 76.568 222.177 76.364C221.793 76.148 221.199 75.938 220.395 75.734C219.663 75.542 219.063 75.35 218.595 75.158C218.139 74.954 217.743 74.66 217.407 74.276C217.083 73.88 216.921 73.364 216.921 72.728C216.921 72.224 217.071 71.762 217.371 71.342C217.671 70.922 218.097 70.592 218.649 70.352C219.201 70.1 219.831 69.974 220.539 69.974C221.631 69.974 222.513 70.25 223.185 70.802C223.857 71.354 224.217 72.11 224.265 73.07H222.627C222.591 72.554 222.381 72.14 221.997 71.828C221.625 71.516 221.121 71.36 220.485 71.36C219.897 71.36 219.429 71.486 219.081 71.738C218.733 71.99 218.559 72.32 218.559 72.728C218.559 73.052 218.661 73.322 218.865 73.538C219.081 73.742 219.345 73.91 219.657 74.042C219.981 74.162 220.425 74.3 220.989 74.456C221.697 74.648 222.273 74.84 222.717 75.032C223.161 75.212 223.539 75.488 223.851 75.86C224.175 76.232 224.343 76.718 224.355 77.318C224.355 77.858 224.205 78.344 223.905 78.776C223.605 79.208 223.179 79.55 222.627 79.802C222.087 80.042 221.463 80.162 220.755 80.162ZM228.665 71.486V77.3C228.665 77.78 228.767 78.122 228.971 78.326C229.175 78.518 229.529 78.614 230.033 78.614H231.239V80H229.763C228.851 80 228.167 79.79 227.711 79.37C227.255 78.95 227.027 78.26 227.027 77.3V71.486H225.749V70.136H227.027V67.652H228.665V70.136H231.239V71.486H228.665ZM234.862 71.738C235.15 71.174 235.558 70.736 236.086 70.424C236.626 70.112 237.28 69.956 238.048 69.956V71.648H237.616C235.78 71.648 234.862 72.644 234.862 74.636V80H233.224V70.136H234.862V71.738ZM248.435 70.136L242.495 84.644H240.803L242.747 79.892L238.769 70.136H240.587L243.683 78.128L246.743 70.136H248.435ZM259.182 80.162C258.258 80.162 257.418 79.952 256.662 79.532C255.918 79.112 255.33 78.518 254.898 77.75C254.478 76.97 254.268 76.07 254.268 75.05C254.268 74.042 254.484 73.154 254.916 72.386C255.36 71.606 255.96 71.012 256.716 70.604C257.472 70.184 258.318 69.974 259.254 69.974C260.19 69.974 261.036 70.184 261.792 70.604C262.548 71.012 263.142 71.6 263.574 72.368C264.018 73.136 264.24 74.03 264.24 75.05C264.24 76.07 264.012 76.97 263.556 77.75C263.112 78.518 262.506 79.112 261.738 79.532C260.97 79.952 260.118 80.162 259.182 80.162ZM259.182 78.722C259.77 78.722 260.322 78.584 260.838 78.308C261.354 78.032 261.768 77.618 262.08 77.066C262.404 76.514 262.566 75.842 262.566 75.05C262.566 74.258 262.41 73.586 262.098 73.034C261.786 72.482 261.378 72.074 260.874 71.81C260.37 71.534 259.824 71.396 259.236 71.396C258.636 71.396 258.084 71.534 257.58 71.81C257.088 72.074 256.692 72.482 256.392 73.034C256.092 73.586 255.942 74.258 255.942 75.05C255.942 75.854 256.086 76.532 256.374 77.084C256.674 77.636 257.07 78.05 257.562 78.326C258.054 78.59 258.594 78.722 259.182 78.722ZM270.408 71.486H268.338V80H266.7V71.486H265.422V70.136H266.7V69.434C266.7 68.33 266.982 67.526 267.546 67.022C268.122 66.506 269.04 66.248 270.3 66.248V67.616C269.58 67.616 269.07 67.76 268.77 68.048C268.482 68.324 268.338 68.786 268.338 69.434V70.136H270.408V71.486ZM278.754 68.786V72.98H283.326V74.33H278.754V78.65H283.866V80H277.116V67.436H283.866V68.786H278.754ZM287.983 66.68V80H286.345V66.68H287.983ZM299.775 74.69C299.775 75.002 299.757 75.332 299.721 75.68H291.837C291.897 76.652 292.227 77.414 292.827 77.966C293.439 78.506 294.177 78.776 295.041 78.776C295.749 78.776 296.337 78.614 296.805 78.29C297.285 77.954 297.621 77.51 297.813 76.958H299.577C299.313 77.906 298.785 78.68 297.993 79.28C297.201 79.868 296.217 80.162 295.041 80.162C294.105 80.162 293.265 79.952 292.521 79.532C291.789 79.112 291.213 78.518 290.793 77.75C290.373 76.97 290.163 76.07 290.163 75.05C290.163 74.03 290.367 73.136 290.775 72.368C291.183 71.6 291.753 71.012 292.485 70.604C293.229 70.184 294.081 69.974 295.041 69.974C295.977 69.974 296.805 70.178 297.525 70.586C298.245 70.994 298.797 71.558 299.181 72.278C299.577 72.986 299.775 73.79 299.775 74.69ZM298.083 74.348C298.083 73.724 297.945 73.19 297.669 72.746C297.393 72.29 297.015 71.948 296.535 71.72C296.067 71.48 295.545 71.36 294.969 71.36C294.141 71.36 293.433 71.624 292.845 72.152C292.269 72.68 291.939 73.412 291.855 74.348H298.083ZM301.325 75.05C301.325 74.03 301.529 73.142 301.937 72.386C302.345 71.618 302.909 71.024 303.629 70.604C304.361 70.184 305.195 69.974 306.131 69.974C307.343 69.974 308.339 70.268 309.119 70.856C309.911 71.444 310.433 72.26 310.685 73.304H308.921C308.753 72.704 308.423 72.23 307.931 71.882C307.451 71.534 306.851 71.36 306.131 71.36C305.195 71.36 304.439 71.684 303.863 72.332C303.287 72.968 302.999 73.874 302.999 75.05C302.999 76.238 303.287 77.156 303.863 77.804C304.439 78.452 305.195 78.776 306.131 78.776C306.851 78.776 307.451 78.608 307.931 78.272C308.411 77.936 308.741 77.456 308.921 76.832H310.685C310.421 77.84 309.893 78.65 309.101 79.262C308.309 79.862 307.319 80.162 306.131 80.162C305.195 80.162 304.361 79.952 303.629 79.532C302.909 79.112 302.345 78.518 301.937 77.75C301.529 76.982 301.325 76.082 301.325 75.05ZM314.868 71.486V77.3C314.868 77.78 314.97 78.122 315.174 78.326C315.378 78.518 315.732 78.614 316.236 78.614H317.442V80H315.966C315.054 80 314.37 79.79 313.914 79.37C313.458 78.95 313.23 78.26 313.23 77.3V71.486H311.952V70.136H313.23V67.652H314.868V70.136H317.442V71.486H314.868ZM321.065 71.738C321.353 71.174 321.761 70.736 322.289 70.424C322.829 70.112 323.483 69.956 324.251 69.956V71.648H323.819C321.983 71.648 321.065 72.644 321.065 74.636V80H319.427V70.136H321.065V71.738ZM330.444 80.162C329.52 80.162 328.68 79.952 327.924 79.532C327.18 79.112 326.592 78.518 326.16 77.75C325.74 76.97 325.53 76.07 325.53 75.05C325.53 74.042 325.746 73.154 326.178 72.386C326.622 71.606 327.222 71.012 327.978 70.604C328.734 70.184 329.58 69.974 330.516 69.974C331.452 69.974 332.298 70.184 333.054 70.604C333.81 71.012 334.404 71.6 334.836 72.368C335.28 73.136 335.502 74.03 335.502 75.05C335.502 76.07 335.274 76.97 334.818 77.75C334.374 78.518 333.768 79.112 333 79.532C332.232 79.952 331.38 80.162 330.444 80.162ZM330.444 78.722C331.032 78.722 331.584 78.584 332.1 78.308C332.616 78.032 333.03 77.618 333.342 77.066C333.666 76.514 333.828 75.842 333.828 75.05C333.828 74.258 333.672 73.586 333.36 73.034C333.048 72.482 332.64 72.074 332.136 71.81C331.632 71.534 331.086 71.396 330.498 71.396C329.898 71.396 329.346 71.534 328.842 71.81C328.35 72.074 327.954 72.482 327.654 73.034C327.354 73.586 327.204 74.258 327.204 75.05C327.204 75.854 327.348 76.532 327.636 77.084C327.936 77.636 328.332 78.05 328.824 78.326C329.316 78.59 329.856 78.722 330.444 78.722ZM342.462 69.956C343.662 69.956 344.634 70.322 345.378 71.054C346.122 71.774 346.494 72.818 346.494 74.186V80H344.874V74.42C344.874 73.436 344.628 72.686 344.136 72.17C343.644 71.642 342.972 71.378 342.12 71.378C341.256 71.378 340.566 71.648 340.05 72.188C339.546 72.728 339.294 73.514 339.294 74.546V80H337.656V70.136H339.294V71.54C339.618 71.036 340.056 70.646 340.608 70.37C341.172 70.094 341.79 69.956 342.462 69.956ZM350.015 68.534C349.703 68.534 349.439 68.426 349.223 68.21C349.007 67.994 348.899 67.73 348.899 67.418C348.899 67.106 349.007 66.842 349.223 66.626C349.439 66.41 349.703 66.302 350.015 66.302C350.315 66.302 350.567 66.41 350.771 66.626C350.987 66.842 351.095 67.106 351.095 67.418C351.095 67.73 350.987 67.994 350.771 68.21C350.567 68.426 350.315 68.534 350.015 68.534ZM350.807 70.136V80H349.169V70.136H350.807ZM352.987 75.05C352.987 74.03 353.191 73.142 353.599 72.386C354.007 71.618 354.571 71.024 355.291 70.604C356.023 70.184 356.857 69.974 357.793 69.974C359.005 69.974 360.001 70.268 360.781 70.856C361.573 71.444 362.095 72.26 362.347 73.304H360.583C360.415 72.704 360.085 72.23 359.593 71.882C359.113 71.534 358.513 71.36 357.793 71.36C356.857 71.36 356.101 71.684 355.525 72.332C354.949 72.968 354.661 73.874 354.661 75.05C354.661 76.238 354.949 77.156 355.525 77.804C356.101 78.452 356.857 78.776 357.793 78.776C358.513 78.776 359.113 78.608 359.593 78.272C360.073 77.936 360.403 77.456 360.583 76.832H362.347C362.083 77.84 361.555 78.65 360.763 79.262C359.971 79.862 358.981 80.162 357.793 80.162C356.857 80.162 356.023 79.952 355.291 79.532C354.571 79.112 354.007 78.518 353.599 77.75C353.191 76.982 352.987 76.082 352.987 75.05ZM368.024 80.162C367.268 80.162 366.59 80.036 365.99 79.784C365.39 79.52 364.916 79.16 364.568 78.704C364.22 78.236 364.028 77.702 363.992 77.102H365.684C365.732 77.594 365.96 77.996 366.368 78.308C366.788 78.62 367.334 78.776 368.006 78.776C368.63 78.776 369.122 78.638 369.482 78.362C369.842 78.086 370.022 77.738 370.022 77.318C370.022 76.886 369.83 76.568 369.446 76.364C369.062 76.148 368.468 75.938 367.664 75.734C366.932 75.542 366.332 75.35 365.864 75.158C365.408 74.954 365.012 74.66 364.676 74.276C364.352 73.88 364.19 73.364 364.19 72.728C364.19 72.224 364.34 71.762 364.64 71.342C364.94 70.922 365.366 70.592 365.918 70.352C366.47 70.1 367.1 69.974 367.808 69.974C368.9 69.974 369.782 70.25 370.454 70.802C371.126 71.354 371.486 72.11 371.534 73.07H369.896C369.86 72.554 369.65 72.14 369.266 71.828C368.894 71.516 368.39 71.36 367.754 71.36C367.166 71.36 366.698 71.486 366.35 71.738C366.002 71.99 365.828 72.32 365.828 72.728C365.828 73.052 365.93 73.322 366.134 73.538C366.35 73.742 366.614 73.91 366.926 74.042C367.25 74.162 367.694 74.3 368.258 74.456C368.966 74.648 369.542 74.84 369.986 75.032C370.43 75.212 370.808 75.488 371.12 75.86C371.444 76.232 371.612 76.718 371.624 77.318C371.624 77.858 371.474 78.344 371.174 78.776C370.874 79.208 370.448 79.55 369.896 79.802C369.356 80.042 368.732 80.162 368.024 80.162ZM388.366 80L386.728 78.344C386.116 78.98 385.462 79.454 384.766 79.766C384.07 80.066 383.284 80.216 382.408 80.216C381.544 80.216 380.776 80.06 380.104 79.748C379.444 79.436 378.928 78.992 378.556 78.416C378.196 77.84 378.016 77.168 378.016 76.4C378.016 75.524 378.262 74.756 378.754 74.096C379.258 73.424 379.996 72.896 380.968 72.512C380.584 72.056 380.308 71.636 380.14 71.252C379.972 70.868 379.888 70.448 379.888 69.992C379.888 69.464 380.02 68.99 380.284 68.57C380.56 68.138 380.95 67.802 381.454 67.562C381.958 67.322 382.54 67.202 383.2 67.202C383.848 67.202 384.412 67.328 384.892 67.58C385.372 67.832 385.732 68.186 385.972 68.642C386.212 69.086 386.32 69.584 386.296 70.136H384.658C384.67 69.644 384.532 69.26 384.244 68.984C383.956 68.696 383.584 68.552 383.128 68.552C382.648 68.552 382.258 68.69 381.958 68.966C381.67 69.23 381.526 69.572 381.526 69.992C381.526 70.352 381.622 70.7 381.814 71.036C382.018 71.372 382.354 71.786 382.822 72.278L386.566 76.04L386.89 75.536L388.114 73.484H389.878L388.402 76.04C388.198 76.4 387.958 76.778 387.682 77.174L390.508 80H388.366ZM382.408 78.812C383.056 78.812 383.638 78.686 384.154 78.434C384.682 78.182 385.18 77.792 385.648 77.264L381.958 73.556C380.422 74.144 379.654 75.074 379.654 76.346C379.654 77.054 379.906 77.642 380.41 78.11C380.926 78.578 381.592 78.812 382.408 78.812ZM398.479 67.454V80H396.841V67.454H398.479ZM406.077 69.956C407.277 69.956 408.249 70.322 408.993 71.054C409.737 71.774 410.109 72.818 410.109 74.186V80H408.489V74.42C408.489 73.436 408.243 72.686 407.751 72.17C407.259 71.642 406.587 71.378 405.735 71.378C404.871 71.378 404.181 71.648 403.665 72.188C403.161 72.728 402.909 73.514 402.909 74.546V80H401.271V70.136H402.909V71.54C403.233 71.036 403.671 70.646 404.223 70.37C404.787 70.094 405.405 69.956 406.077 69.956ZM416.798 71.486H414.728V80H413.09V71.486H411.812V70.136H413.09V69.434C413.09 68.33 413.372 67.526 413.936 67.022C414.512 66.506 415.43 66.248 416.69 66.248V67.616C415.97 67.616 415.46 67.76 415.16 68.048C414.872 68.324 414.728 68.786 414.728 69.434V70.136H416.798V71.486ZM423.01 80.162C422.086 80.162 421.246 79.952 420.49 79.532C419.746 79.112 419.158 78.518 418.726 77.75C418.306 76.97 418.096 76.07 418.096 75.05C418.096 74.042 418.312 73.154 418.744 72.386C419.188 71.606 419.788 71.012 420.544 70.604C421.3 70.184 422.146 69.974 423.082 69.974C424.018 69.974 424.864 70.184 425.62 70.604C426.376 71.012 426.97 71.6 427.402 72.368C427.846 73.136 428.068 74.03 428.068 75.05C428.068 76.07 427.84 76.97 427.384 77.75C426.94 78.518 426.334 79.112 425.566 79.532C424.798 79.952 423.946 80.162 423.01 80.162ZM423.01 78.722C423.598 78.722 424.15 78.584 424.666 78.308C425.182 78.032 425.596 77.618 425.908 77.066C426.232 76.514 426.394 75.842 426.394 75.05C426.394 74.258 426.238 73.586 425.926 73.034C425.614 72.482 425.206 72.074 424.702 71.81C424.198 71.534 423.652 71.396 423.064 71.396C422.464 71.396 421.912 71.534 421.408 71.81C420.916 72.074 420.52 72.482 420.22 73.034C419.92 73.586 419.77 74.258 419.77 75.05C419.77 75.854 419.914 76.532 420.202 77.084C420.502 77.636 420.898 78.05 421.39 78.326C421.882 78.59 422.422 78.722 423.01 78.722ZM431.86 71.738C432.148 71.174 432.556 70.736 433.084 70.424C433.624 70.112 434.278 69.956 435.046 69.956V71.648H434.614C432.778 71.648 431.86 72.644 431.86 74.636V80H430.222V70.136H431.86V71.738ZM448.799 69.956C449.567 69.956 450.251 70.118 450.851 70.442C451.451 70.754 451.925 71.228 452.273 71.864C452.621 72.5 452.795 73.274 452.795 74.186V80H451.175V74.42C451.175 73.436 450.929 72.686 450.437 72.17C449.957 71.642 449.303 71.378 448.475 71.378C447.623 71.378 446.945 71.654 446.441 72.206C445.937 72.746 445.685 73.532 445.685 74.564V80H444.065V74.42C444.065 73.436 443.819 72.686 443.327 72.17C442.847 71.642 442.193 71.378 441.365 71.378C440.513 71.378 439.835 71.654 439.331 72.206C438.827 72.746 438.575 73.532 438.575 74.564V80H436.937V70.136H438.575V71.558C438.899 71.042 439.331 70.646 439.871 70.37C440.423 70.094 441.029 69.956 441.689 69.956C442.517 69.956 443.249 70.142 443.885 70.514C444.521 70.886 444.995 71.432 445.307 72.152C445.583 71.456 446.039 70.916 446.675 70.532C447.311 70.148 448.019 69.956 448.799 69.956ZM454.87 75.032C454.87 74.024 455.074 73.142 455.482 72.386C455.89 71.618 456.448 71.024 457.156 70.604C457.876 70.184 458.674 69.974 459.55 69.974C460.414 69.974 461.164 70.16 461.8 70.532C462.436 70.904 462.91 71.372 463.222 71.936V70.136H464.878V80H463.222V78.164C462.898 78.74 462.412 79.22 461.764 79.604C461.128 79.976 460.384 80.162 459.532 80.162C458.656 80.162 457.864 79.946 457.156 79.514C456.448 79.082 455.89 78.476 455.482 77.696C455.074 76.916 454.87 76.028 454.87 75.032ZM463.222 75.05C463.222 74.306 463.072 73.658 462.772 73.106C462.472 72.554 462.064 72.134 461.548 71.846C461.044 71.546 460.486 71.396 459.874 71.396C459.262 71.396 458.704 71.54 458.2 71.828C457.696 72.116 457.294 72.536 456.994 73.088C456.694 73.64 456.544 74.288 456.544 75.032C456.544 75.788 456.694 76.448 456.994 77.012C457.294 77.564 457.696 77.99 458.2 78.29C458.704 78.578 459.262 78.722 459.874 78.722C460.486 78.722 461.044 78.578 461.548 78.29C462.064 77.99 462.472 77.564 462.772 77.012C463.072 76.448 463.222 75.794 463.222 75.05ZM469.644 71.486V77.3C469.644 77.78 469.746 78.122 469.95 78.326C470.154 78.518 470.508 78.614 471.012 78.614H472.218V80H470.742C469.83 80 469.146 79.79 468.69 79.37C468.234 78.95 468.006 78.26 468.006 77.3V71.486H466.728V70.136H468.006V67.652H469.644V70.136H472.218V71.486H469.644ZM475.048 68.534C474.736 68.534 474.472 68.426 474.256 68.21C474.04 67.994 473.932 67.73 473.932 67.418C473.932 67.106 474.04 66.842 474.256 66.626C474.472 66.41 474.736 66.302 475.048 66.302C475.348 66.302 475.6 66.41 475.804 66.626C476.02 66.842 476.128 67.106 476.128 67.418C476.128 67.73 476.02 67.994 475.804 68.21C475.6 68.426 475.348 68.534 475.048 68.534ZM475.84 70.136V80H474.202V70.136H475.84ZM482.934 80.162C482.01 80.162 481.17 79.952 480.414 79.532C479.67 79.112 479.082 78.518 478.65 77.75C478.23 76.97 478.02 76.07 478.02 75.05C478.02 74.042 478.236 73.154 478.668 72.386C479.112 71.606 479.712 71.012 480.468 70.604C481.224 70.184 482.07 69.974 483.006 69.974C483.942 69.974 484.788 70.184 485.544 70.604C486.3 71.012 486.894 71.6 487.326 72.368C487.77 73.136 487.992 74.03 487.992 75.05C487.992 76.07 487.764 76.97 487.308 77.75C486.864 78.518 486.258 79.112 485.49 79.532C484.722 79.952 483.87 80.162 482.934 80.162ZM482.934 78.722C483.522 78.722 484.074 78.584 484.59 78.308C485.106 78.032 485.52 77.618 485.832 77.066C486.156 76.514 486.318 75.842 486.318 75.05C486.318 74.258 486.162 73.586 485.85 73.034C485.538 72.482 485.13 72.074 484.626 71.81C484.122 71.534 483.576 71.396 482.988 71.396C482.388 71.396 481.836 71.534 481.332 71.81C480.84 72.074 480.444 72.482 480.144 73.034C479.844 73.586 479.694 74.258 479.694 75.05C479.694 75.854 479.838 76.532 480.126 77.084C480.426 77.636 480.822 78.05 481.314 78.326C481.806 78.59 482.346 78.722 482.934 78.722ZM494.952 69.956C496.152 69.956 497.124 70.322 497.868 71.054C498.612 71.774 498.984 72.818 498.984 74.186V80H497.364V74.42C497.364 73.436 497.118 72.686 496.626 72.17C496.134 71.642 495.462 71.378 494.61 71.378C493.746 71.378 493.056 71.648 492.54 72.188C492.036 72.728 491.784 73.514 491.784 74.546V80H490.146V70.136H491.784V71.54C492.108 71.036 492.546 70.646 493.098 70.37C493.662 70.094 494.28 69.956 494.952 69.956ZM514.18 67.454V68.786H510.76V80H509.122V68.786H505.684V67.454H514.18ZM525.197 74.69C525.197 75.002 525.179 75.332 525.143 75.68H517.259C517.319 76.652 517.649 77.414 518.249 77.966C518.861 78.506 519.599 78.776 520.463 78.776C521.171 78.776 521.759 78.614 522.227 78.29C522.707 77.954 523.043 77.51 523.235 76.958H524.999C524.735 77.906 524.207 78.68 523.415 79.28C522.623 79.868 521.639 80.162 520.463 80.162C519.527 80.162 518.687 79.952 517.943 79.532C517.211 79.112 516.635 78.518 516.215 77.75C515.795 76.97 515.585 76.07 515.585 75.05C515.585 74.03 515.789 73.136 516.197 72.368C516.605 71.6 517.175 71.012 517.907 70.604C518.651 70.184 519.503 69.974 520.463 69.974C521.399 69.974 522.227 70.178 522.947 70.586C523.667 70.994 524.219 71.558 524.603 72.278C524.999 72.986 525.197 73.79 525.197 74.69ZM523.505 74.348C523.505 73.724 523.367 73.19 523.091 72.746C522.815 72.29 522.437 71.948 521.957 71.72C521.489 71.48 520.967 71.36 520.391 71.36C519.563 71.36 518.855 71.624 518.267 72.152C517.691 72.68 517.361 73.412 517.277 74.348H523.505ZM526.747 75.05C526.747 74.03 526.951 73.142 527.359 72.386C527.767 71.618 528.331 71.024 529.051 70.604C529.783 70.184 530.617 69.974 531.553 69.974C532.765 69.974 533.761 70.268 534.541 70.856C535.333 71.444 535.855 72.26 536.107 73.304H534.343C534.175 72.704 533.845 72.23 533.353 71.882C532.873 71.534 532.273 71.36 531.553 71.36C530.617 71.36 529.861 71.684 529.285 72.332C528.709 72.968 528.421 73.874 528.421 75.05C528.421 76.238 528.709 77.156 529.285 77.804C529.861 78.452 530.617 78.776 531.553 78.776C532.273 78.776 532.873 78.608 533.353 78.272C533.833 77.936 534.163 77.456 534.343 76.832H536.107C535.843 77.84 535.315 78.65 534.523 79.262C533.731 79.862 532.741 80.162 531.553 80.162C530.617 80.162 529.783 79.952 529.051 79.532C528.331 79.112 527.767 78.518 527.359 77.75C526.951 76.982 526.747 76.082 526.747 75.05ZM543.188 69.956C543.932 69.956 544.604 70.118 545.204 70.442C545.804 70.754 546.272 71.228 546.608 71.864C546.956 72.5 547.13 73.274 547.13 74.186V80H545.51V74.42C545.51 73.436 545.264 72.686 544.772 72.17C544.28 71.642 543.608 71.378 542.756 71.378C541.892 71.378 541.202 71.648 540.686 72.188C540.182 72.728 539.93 73.514 539.93 74.546V80H538.292V66.68H539.93V71.54C540.254 71.036 540.698 70.646 541.262 70.37C541.838 70.094 542.48 69.956 543.188 69.956ZM554.612 69.956C555.812 69.956 556.784 70.322 557.528 71.054C558.272 71.774 558.644 72.818 558.644 74.186V80H557.024V74.42C557.024 73.436 556.778 72.686 556.286 72.17C555.794 71.642 555.122 71.378 554.27 71.378C553.406 71.378 552.716 71.648 552.2 72.188C551.696 72.728 551.444 73.514 551.444 74.546V80H549.806V70.136H551.444V71.54C551.768 71.036 552.206 70.646 552.758 70.37C553.322 70.094 553.94 69.956 554.612 69.956ZM565.622 80.162C564.698 80.162 563.858 79.952 563.102 79.532C562.358 79.112 561.77 78.518 561.338 77.75C560.918 76.97 560.708 76.07 560.708 75.05C560.708 74.042 560.924 73.154 561.356 72.386C561.8 71.606 562.4 71.012 563.156 70.604C563.912 70.184 564.758 69.974 565.694 69.974C566.63 69.974 567.476 70.184 568.232 70.604C568.988 71.012 569.582 71.6 570.014 72.368C570.458 73.136 570.68 74.03 570.68 75.05C570.68 76.07 570.452 76.97 569.996 77.75C569.552 78.518 568.946 79.112 568.178 79.532C567.41 79.952 566.558 80.162 565.622 80.162ZM565.622 78.722C566.21 78.722 566.762 78.584 567.278 78.308C567.794 78.032 568.208 77.618 568.52 77.066C568.844 76.514 569.006 75.842 569.006 75.05C569.006 74.258 568.85 73.586 568.538 73.034C568.226 72.482 567.818 72.074 567.314 71.81C566.81 71.534 566.264 71.396 565.676 71.396C565.076 71.396 564.524 71.534 564.02 71.81C563.528 72.074 563.132 72.482 562.832 73.034C562.532 73.586 562.382 74.258 562.382 75.05C562.382 75.854 562.526 76.532 562.814 77.084C563.114 77.636 563.51 78.05 564.002 78.326C564.494 78.59 565.034 78.722 565.622 78.722ZM574.471 66.68V80H572.833V66.68H574.471ZM581.565 80.162C580.641 80.162 579.801 79.952 579.045 79.532C578.301 79.112 577.713 78.518 577.281 77.75C576.861 76.97 576.651 76.07 576.651 75.05C576.651 74.042 576.867 73.154 577.299 72.386C577.743 71.606 578.343 71.012 579.099 70.604C579.855 70.184 580.701 69.974 581.637 69.974C582.573 69.974 583.419 70.184 584.175 70.604C584.931 71.012 585.525 71.6 585.957 72.368C586.401 73.136 586.623 74.03 586.623 75.05C586.623 76.07 586.395 76.97 585.939 77.75C585.495 78.518 584.889 79.112 584.121 79.532C583.353 79.952 582.501 80.162 581.565 80.162ZM581.565 78.722C582.153 78.722 582.705 78.584 583.221 78.308C583.737 78.032 584.151 77.618 584.463 77.066C584.787 76.514 584.949 75.842 584.949 75.05C584.949 74.258 584.793 73.586 584.481 73.034C584.169 72.482 583.761 72.074 583.257 71.81C582.753 71.534 582.207 71.396 581.619 71.396C581.019 71.396 580.467 71.534 579.963 71.81C579.471 72.074 579.075 72.482 578.775 73.034C578.475 73.586 578.325 74.258 578.325 75.05C578.325 75.854 578.469 76.532 578.757 77.084C579.057 77.636 579.453 78.05 579.945 78.326C580.437 78.59 580.977 78.722 581.565 78.722ZM592.845 69.974C593.697 69.974 594.441 70.16 595.077 70.532C595.725 70.904 596.205 71.372 596.517 71.936V70.136H598.173V80.216C598.173 81.116 597.981 81.914 597.597 82.61C597.213 83.318 596.661 83.87 595.941 84.266C595.233 84.662 594.405 84.86 593.457 84.86C592.161 84.86 591.081 84.554 590.217 83.942C589.353 83.33 588.843 82.496 588.687 81.44H590.307C590.487 82.04 590.859 82.52 591.423 82.88C591.987 83.252 592.665 83.438 593.457 83.438C594.357 83.438 595.089 83.156 595.653 82.592C596.229 82.028 596.517 81.236 596.517 80.216V78.146C596.193 78.722 595.713 79.202 595.077 79.586C594.441 79.97 593.697 80.162 592.845 80.162C591.969 80.162 591.171 79.946 590.451 79.514C589.743 79.082 589.185 78.476 588.777 77.696C588.369 76.916 588.165 76.028 588.165 75.032C588.165 74.024 588.369 73.142 588.777 72.386C589.185 71.618 589.743 71.024 590.451 70.604C591.171 70.184 591.969 69.974 592.845 69.974ZM596.517 75.05C596.517 74.306 596.367 73.658 596.067 73.106C595.767 72.554 595.359 72.134 594.843 71.846C594.339 71.546 593.781 71.396 593.169 71.396C592.557 71.396 591.999 71.54 591.495 71.828C590.991 72.116 590.589 72.536 590.289 73.088C589.989 73.64 589.839 74.288 589.839 75.032C589.839 75.788 589.989 76.448 590.289 77.012C590.589 77.564 590.991 77.99 591.495 78.29C591.999 78.578 592.557 78.722 593.169 78.722C593.781 78.722 594.339 78.578 594.843 78.29C595.359 77.99 595.767 77.564 596.067 77.012C596.367 76.448 596.517 75.794 596.517 75.05ZM609.437 70.136L603.497 84.644H601.805L603.749 79.892L599.771 70.136H601.589L604.685 78.128L607.745 70.136H609.437Z" fill="white"/>
<path d="M97.3513 46.926H83.7915C84.1966 47.4847 84.5843 48.0411 84.9621 48.5987H97.3513V46.926Z" fill="white"/>
<path d="M88.8016 54.0806H97.3511V52.7804H87.8379C88.0176 53.0559 88.6274 54.0806 88.8016 54.0806Z" fill="white"/>
<path d="M71.5176 54.0806H80.067V52.7804H71.5176V54.0806Z" fill="white"/>
<path d="M97.3512 26.4818H88.8018V35.0084C88.8018 35.4973 88.8148 36.4948 88.8475 37.5413H97.3512V26.4818Z" fill="white"/>
<path d="M85.2233 34.2657C83.7434 32.1521 82.5477 30.0351 81.0711 27.9203C80.9676 27.7744 80.2543 26.4818 80.067 26.4818H71.5176V37.5413H87.2313C86.6052 36.4186 85.9562 35.3122 85.2233 34.2657Z" fill="white"/>
<path d="M97.3509 43.4883H81.5522C81.978 44.2124 82.4169 44.9268 82.8808 45.6248H97.3509V43.4883Z" fill="white"/>
<path d="M79.5095 39.9545C79.895 40.6014 80.2685 41.2547 80.642 41.9081H97.3511V39.1204H88.9149C88.9682 40.0558 89.0445 40.8191 89.1501 41.0021C88.7918 40.3814 88.4455 39.752 88.0992 39.1204H71.5176V41.9081H79.8765C79.7763 40.9248 79.6456 40.1832 79.5095 39.9545Z" fill="white"/>
<path d="M80.067 46.926H71.5176V48.5987H80.067V46.926Z" fill="white"/>
<path d="M79.9995 43.4883H71.5176V45.6248H80.066C80.0627 44.9083 80.0387 44.1787 79.9995 43.4883Z" fill="white"/>
<path d="M85.8389 49.9C86.2015 50.4402 86.5663 50.9792 86.942 51.5204L97.3514 51.4888V49.9H85.8389Z" fill="white"/>
<path d="M80.067 49.9H71.5176V51.5651L80.067 51.54V49.9Z" fill="white"/>
<path d="M109.06 26.4818H100.51V37.5413H109.06V26.4818Z" fill="white"/>
<path d="M100.51 54.0806H109.06V52.7804H100.51V54.0806Z" fill="white"/>
<path d="M100.51 49.9V51.4768L109.06 51.4518V49.9H100.51Z" fill="white"/>
<path d="M100.51 48.5987H109.06V46.926H100.51V48.5987Z" fill="white"/>
<path d="M100.51 45.6248H109.06V43.4883H100.51V45.6248Z" fill="white"/>
<path d="M109.06 39.1204H100.51V41.9081H109.06V39.1204Z" fill="white"/>
<path d="M116.162 51.4311L129.121 51.393C129.103 50.9062 129.084 50.3977 129.065 49.9H114.578C115.067 50.45 115.596 50.9629 116.162 51.4311Z" fill="white"/>
<path d="M120.831 53.9173C122.212 54.3115 123.655 54.538 125.091 54.5663C125.514 54.5739 129.235 54.4313 129.224 54.147C129.224 54.147 129.203 53.5895 129.173 52.7804H118.122C118.973 53.2585 119.877 53.6439 120.831 53.9173Z" fill="white"/>
<path d="M126.429 33.3489C127.213 33.3401 128.244 33.3881 128.946 33.6276L129.224 26.3239C128.108 26.0452 126.384 25.8949 125.182 25.8949C118.185 25.8949 112.36 30.9096 111.099 37.5403H120.308C121.283 35.1097 123.647 33.3804 126.429 33.3489Z" fill="white"/>
<path d="M111.923 45.6248H123.147C122.217 45.0836 121.428 44.3595 120.853 43.4883H111.233C111.408 44.2157 111.64 44.9312 111.923 45.6248Z" fill="white"/>
<path d="M113.548 48.5987H129.016C128.989 47.8516 128.965 47.2375 128.954 46.926H112.528C112.832 47.5054 113.171 48.064 113.548 48.5987Z" fill="white"/>
<path d="M119.89 39.1204H110.889C110.86 39.4884 110.841 39.8598 110.841 40.2355C110.841 40.7952 110.877 41.3538 110.945 41.9081H120.108C119.934 41.344 119.836 40.7407 119.829 40.1037C119.825 39.7694 119.846 39.4416 119.89 39.1204Z" fill="white"/>
<path d="M161.44 35.9232H153.34V25.1337H161.44V35.9232ZM161.44 40.2028H153.34V37.4717H161.44V40.2028ZM161.44 43.8443H153.34V41.7513H161.44V43.8443ZM161.44 46.7584H153.34V45.1195H161.44V46.7584ZM161.44 49.5625L153.34 49.5679V48.0325H161.44V49.5625ZM161.44 52.1302V52.1803H153.34V50.8561H161.44V52.1302ZM150.67 46.7584H137.441C137.488 46.056 137.53 45.4581 137.553 45.1195C137.566 44.93 137.573 44.82 137.573 44.82C137.88 44.9158 138.275 45.0269 138.704 45.1195C139.623 45.3177 140.706 45.4287 141.464 45.1195H150.834C150.835 45.6716 150.781 46.2204 150.67 46.7584ZM149.426 49.5701L137.25 49.5777C137.284 49.0855 137.319 48.5552 137.355 48.0325H150.284C150.066 48.5693 149.781 49.0855 149.426 49.5701ZM147.141 51.5422C146.673 51.785 146.181 51.9778 145.677 52.1302C143.979 52.6431 142.121 52.678 140.383 52.4787C140.209 52.4591 139.147 52.3012 138.277 52.1302C137.633 52.0028 137.095 51.8678 137.102 51.7752C137.102 51.7752 137.126 51.4126 137.164 50.8561H148.194C147.865 51.1164 147.513 51.3484 147.141 51.5422ZM136.605 34.7406C135.987 32.641 136.256 30.4228 137.375 28.5378C138.479 26.68 140.241 25.5998 142.223 25.0891C144.249 24.5653 146.504 24.6382 148.522 25.0891C149.09 25.2154 149.639 25.3722 150.159 25.554L149.704 31.8809C148.21 31.4192 145.368 31.0609 144.626 32.4428C143.983 33.6418 145.04 34.9921 145.873 35.9232H137.066C136.884 35.5497 136.727 35.1576 136.605 34.7406ZM140.219 40.2028C139.475 39.2804 138.681 38.4136 138.002 37.4717H147.266C147.365 37.5838 147.466 37.696 147.564 37.8103C148.217 38.5694 148.833 39.3589 149.362 40.2028H140.219ZM150.159 41.7513C150.433 42.4286 150.628 43.1332 150.734 43.8443H142.373C142.374 43.7539 142.369 43.6614 142.358 43.5699C142.273 42.8838 141.921 42.2969 141.499 41.7513H150.159ZM0.572754 21V23.974H132.848V54.8254H165V21H0.572754Z" fill="white"/>
<path d="M153.34 52.1803H161.44V52.1302H153.34V52.1803Z" fill="white"/>
<path d="M18.0874 26.8467H19.6697L22.5369 31.8831V26.8467H23.9428V34.0698H22.4335L19.4933 28.9451V34.0698H18.0874V26.8467Z" fill="white"/>
<path d="M27.1251 31.3408H28.9741L28.0627 28.4986L27.1251 31.3408ZM27.2242 26.8467H28.9317L31.4875 34.0698H29.8508L29.3738 32.5855H26.7145L26.2245 34.0698H24.6455L27.2242 26.8467Z" fill="white"/>
<path d="M36.7143 26.8467V28.1262H34.5527V34.0698H33.0336V28.1262H30.8633V26.8467H36.7143Z" fill="white"/>
<path d="M38.7725 34.0698H37.2729V26.8467H38.7725V34.0698Z" fill="white"/>
<path d="M44.6017 32.3307C44.9524 31.8897 45.1277 31.2624 45.1277 30.449C45.1277 29.6388 44.9524 29.0126 44.6017 28.5694C44.25 28.1273 43.7752 27.9052 43.1785 27.9052C42.5795 27.9052 42.1026 28.1262 41.7465 28.5672C41.3904 29.0083 41.2129 29.6355 41.2129 30.449C41.2129 31.2624 41.3904 31.8897 41.7465 32.3307C42.1026 32.7717 42.5795 32.9917 43.1785 32.9917C43.7752 32.9917 44.25 32.7717 44.6017 32.3307ZM45.5448 33.4284C44.9992 33.9903 44.2097 34.2712 43.1785 34.2712C42.145 34.2712 41.3566 33.9903 40.8111 33.4284C40.0793 32.7391 39.7134 31.7459 39.7134 30.449C39.7134 29.1259 40.0793 28.1327 40.8111 27.4696C41.3566 26.9077 42.145 26.6267 43.1785 26.6267C44.2097 26.6267 44.9992 26.9077 45.5448 27.4696C46.2733 28.1327 46.637 29.1259 46.637 30.449C46.637 31.7459 46.2733 32.7391 45.5448 33.4284Z" fill="white"/>
<path d="M47.5635 26.8467H49.1457L52.013 31.8831V26.8467H53.4199V34.0698H51.9106L48.9704 28.9451V34.0698H47.5635V26.8467Z" fill="white"/>
<path d="M56.601 31.3408H58.4512L57.5386 28.4986L56.601 31.3408ZM56.7012 26.8467H58.4087L60.9645 34.0698H59.3278L58.8508 32.5855H56.1905L55.7016 34.0698H54.1226L56.7012 26.8467Z" fill="white"/>
<path d="M61.6821 26.8467H63.1914V32.7717H66.7981V34.0698H61.6821V26.8467Z" fill="white"/>
<path d="M2.07226 44.1057H0.572754V36.8826H2.07226V44.1057Z" fill="white"/>
<path d="M3.2583 36.8826H4.84057L7.70781 41.919V36.8826H9.11475V44.1057H7.60545L4.66524 38.981V44.1057H3.2583V36.8826Z" fill="white"/>
<path d="M10.3296 36.8925H15.4804V38.1622H11.8291V39.8229H15.0285V41.0773H11.8291V44.1058H10.3296V36.8925Z" fill="white"/>
<path d="M20.8775 42.3666C21.2292 41.9256 21.4046 41.2983 21.4046 40.4849C21.4046 39.6747 21.2292 39.0485 20.8775 38.6053C20.5269 38.1632 20.0521 37.941 19.4542 37.941C18.8564 37.941 18.3794 38.1621 18.0233 38.6031C17.6672 39.0442 17.4897 39.6714 17.4897 40.4849C17.4897 41.2983 17.6672 41.9256 18.0233 42.3666C18.3794 42.8076 18.8564 43.0276 19.4542 43.0276C20.0521 43.0276 20.5269 42.8076 20.8775 42.3666ZM21.8216 43.4643C21.2761 44.0262 20.4866 44.3071 19.4542 44.3071C18.4219 44.3071 17.6335 44.0262 17.0879 43.4643C16.3561 42.775 15.9902 41.7818 15.9902 40.4849C15.9902 39.1618 16.3561 38.1686 17.0879 37.5055C17.6335 36.9436 18.4219 36.6626 19.4542 36.6626C20.4866 36.6626 21.2761 36.9436 21.8216 37.5055C22.5502 38.1686 22.9139 39.1618 22.9139 40.4849C22.9139 41.7818 22.5502 42.775 21.8216 43.4643Z" fill="white"/>
<path d="M25.3739 38.1371V40.0776H26.9986C27.3209 40.0776 27.5627 40.0384 27.7249 39.96C28.0103 39.8228 28.1529 39.5516 28.1529 39.1465C28.1529 38.7088 28.0146 38.4147 27.7391 38.2645C27.5834 38.1795 27.3503 38.1371 27.04 38.1371H25.3739ZM28.4938 37.0688C28.7595 37.1831 28.9849 37.3519 29.17 37.5741C29.3225 37.757 29.4433 37.9596 29.5326 38.1817C29.6219 38.4039 29.6666 38.6565 29.6666 38.9407C29.6666 39.2837 29.5805 39.6213 29.4074 39.9534C29.2343 40.2845 28.9479 40.5186 28.5493 40.6558C28.8825 40.7898 29.1188 40.9803 29.2582 41.2264C29.3965 41.4736 29.4662 41.8504 29.4662 42.3568V42.8414C29.4662 43.1713 29.4793 43.3957 29.5054 43.5133C29.5457 43.6995 29.6383 43.8367 29.7842 43.9249V44.1057H28.1181C28.0723 43.9456 28.0397 43.8171 28.0201 43.7191C27.9809 43.5165 27.9602 43.3085 27.9569 43.0962L27.9471 42.4254C27.9406 41.9648 27.8611 41.6577 27.7086 41.5041C27.5551 41.3506 27.2687 41.2733 26.8483 41.2733H25.3739V44.1057H23.8994V36.8826H27.3536C27.848 36.8924 28.228 36.9544 28.4938 37.0688Z" fill="white"/>
<path d="M35.7037 36.8826H37.8751V44.1057H36.4692V39.2206C36.4692 39.0801 36.4703 38.883 36.4736 38.6304C36.4769 38.3766 36.479 38.1817 36.479 38.0445L35.1102 44.1057H33.6434L32.2843 38.0445C32.2843 38.1817 32.2854 38.3766 32.2887 38.6304C32.292 38.883 32.2931 39.0801 32.2931 39.2206V44.1057H30.8872V36.8826H33.0836L34.398 42.5626L35.7037 36.8826Z" fill="white"/>
<path d="M41.0377 41.3767H42.8867L41.9753 38.5345L41.0377 41.3767ZM41.1368 36.8826H42.8443L45.4001 44.1057H43.7634L43.2864 42.6214H40.6271L40.1371 44.1057H38.5581L41.1368 36.8826Z" fill="white"/>
<path d="M50.6259 36.8826V38.1621H48.4654V44.1057H46.9463V38.1621H44.7749V36.8826H50.6259Z" fill="white"/>
<path d="M52.6851 44.1057H51.1855V36.8826H52.6851V44.1057Z" fill="white"/>
<path d="M54.5856 37.6372C55.1671 37.0426 55.9076 36.7454 56.806 36.7454C58.0082 36.7454 58.887 37.1439 59.4434 37.941C59.7505 38.3886 59.915 38.8384 59.9378 39.2892H58.4285C58.3327 38.9429 58.2086 38.6815 58.0583 38.5051C57.7893 38.1915 57.3918 38.0347 56.8637 38.0347C56.3257 38.0347 55.901 38.2558 55.5907 38.699C55.2803 39.1411 55.1257 39.7672 55.1257 40.5774C55.1257 41.3876 55.289 41.9953 55.6168 42.3982C55.9446 42.8011 56.3606 43.0036 56.8659 43.0036C57.3831 43.0036 57.7784 42.8305 58.0496 42.4842C58.1998 42.298 58.324 42.0181 58.4231 41.6457H59.9226C59.793 42.433 59.463 43.0733 58.9316 43.5666C58.4002 44.0599 57.7185 44.3071 56.8876 44.3071C55.8607 44.3071 55.0527 43.9739 54.4647 43.3075C53.8756 42.6377 53.5815 41.7198 53.5815 40.5535C53.5815 39.2924 53.9159 38.32 54.5856 37.6372Z" fill="white"/>
<path d="M62.0296 41.8765C62.0764 42.2065 62.169 42.4526 62.3051 42.6159C62.5555 42.9132 62.9835 43.0624 63.5911 43.0624C63.9549 43.0624 64.25 43.0232 64.4765 42.9448C64.9066 42.7945 65.1222 42.5147 65.1222 42.1063C65.1222 41.8678 65.0166 41.6838 64.8064 41.5531C64.5952 41.4257 64.2609 41.3124 63.8035 41.2144L63.0205 41.0435C62.2528 40.8736 61.7247 40.6885 61.4372 40.4892C60.9504 40.156 60.7065 39.6354 60.7065 38.9265C60.7065 38.2797 60.945 37.7417 61.4208 37.3138C61.8978 36.8858 62.5969 36.6724 63.5193 36.6724C64.2903 36.6724 64.9469 36.8738 65.4914 37.2778C66.0359 37.6807 66.3201 38.2666 66.3473 39.0343H64.8968C64.8696 38.5998 64.6758 38.2906 64.3142 38.1076C64.0725 37.9867 63.773 37.9269 63.4147 37.9269C63.0162 37.9269 62.6982 38.0053 62.4597 38.1621C62.2223 38.3189 62.1036 38.5378 62.1036 38.8187C62.1036 39.0768 62.2201 39.2695 62.4554 39.397C62.6056 39.4819 62.9258 39.581 63.4147 39.6953L64.6823 39.9948C65.2377 40.1255 65.6547 40.2997 65.9313 40.5186C66.3626 40.8583 66.5771 41.3506 66.5771 41.9941C66.5771 42.654 66.3223 43.2018 65.8126 43.6374C65.3019 44.0741 64.581 44.2918 63.6499 44.2918C62.6993 44.2918 61.9512 44.0773 61.4067 43.6472C60.8611 43.2181 60.5889 42.6279 60.5889 41.8765H62.0296Z" fill="white"/>
<path d="M28.069 47.6731C28.6505 47.0785 29.391 46.7812 30.2894 46.7812C31.4916 46.7812 32.3704 47.1798 32.9257 47.9769C33.2328 48.4245 33.3984 48.8742 33.4212 49.3251H31.9119C31.815 48.9788 31.692 48.7174 31.5417 48.541C31.2727 48.2274 30.8741 48.0706 30.346 48.0706C29.8091 48.0706 29.3844 48.2916 29.0741 48.7349C28.7637 49.177 28.6091 49.8031 28.6091 50.6133C28.6091 51.4235 28.7724 52.0311 29.1002 52.4341C29.428 52.837 29.844 53.0395 30.3482 53.0395C30.8665 53.0395 31.2607 52.8664 31.533 52.5201C31.6822 52.3339 31.8074 52.054 31.9065 51.6816H33.406C33.2764 52.4689 32.9464 53.1092 32.415 53.6036C31.8825 54.0958 31.2019 54.343 30.371 54.343C29.3431 54.343 28.535 54.0098 27.947 53.3434C27.359 52.6736 27.0649 51.7556 27.0649 50.5894C27.0649 49.3283 27.3993 48.3559 28.069 47.6731Z" fill="white"/>
<path d="M39.7669 48.198H35.9447V49.7313H39.4533V50.9857H35.9447V52.8435H39.9434V54.1416H34.4702V46.9185H39.7669V48.198Z" fill="white"/>
<path d="M40.894 46.9185H42.4763L45.3436 51.9549V46.9185H46.7505V54.1416H45.2412L42.301 49.0169V54.1416H40.894V46.9185Z" fill="white"/>
<path d="M53.2143 46.9185V48.198H51.0527V54.1416H49.5336V48.198H47.3633V46.9185H53.2143Z" fill="white"/>
<path d="M55.4041 48.1729V50.1135H57.0289C57.3512 50.1135 57.593 50.0743 57.7552 49.9959C58.0405 49.8587 58.1832 49.5875 58.1832 49.1824C58.1832 48.7447 58.0449 48.4506 57.7683 48.3004C57.6137 48.2154 57.3806 48.1729 57.0703 48.1729H55.4041ZM58.524 47.1047C58.7897 47.219 59.0152 47.3878 59.2003 47.6099C59.3527 47.7929 59.4736 47.9954 59.5629 48.2176C59.6522 48.4397 59.6968 48.6924 59.6968 48.9766C59.6968 49.3196 59.6108 49.6572 59.4377 49.9893C59.2645 50.3204 58.9781 50.5545 58.5796 50.6917C58.9128 50.8257 59.1491 51.0162 59.2885 51.2623C59.4268 51.5095 59.4965 51.8863 59.4965 52.3927V52.8773C59.4965 53.2072 59.5095 53.4316 59.5357 53.5492C59.576 53.7354 59.6685 53.8726 59.8145 53.9608V54.1416H58.1483C58.1026 53.9815 58.0699 53.853 58.0503 53.755C58.0111 53.5524 57.9904 53.3444 57.9872 53.1321L57.9774 52.4613C57.9708 52.0007 57.8913 51.6936 57.7378 51.54C57.5853 51.3865 57.2989 51.3092 56.8786 51.3092H55.4041V54.1416H53.9297V46.9185H57.3839C57.8783 46.9283 58.2583 46.9903 58.524 47.1047Z" fill="white"/>
<path d="M66.2831 48.198H62.4608V49.7313H65.9694V50.9857H62.4608V52.8435H66.4595V54.1416H60.9863V46.9185H66.2831V48.198Z" fill="white"/>
<path d="M87.0356 56.8694V56.9619" stroke="white" stroke-width="1.33333" stroke-miterlimit="10"/>
<path d="M117.48 59.9806C117.031 59.9806 116.673 60.1461 116.406 60.4761C116.139 60.8071 116.005 61.2775 116.005 61.8874C116.005 62.4972 116.139 62.9687 116.406 63.2987C116.673 63.6297 117.031 63.7952 117.48 63.7952C117.927 63.7952 118.283 63.6297 118.547 63.2987C118.811 62.9687 118.942 62.4972 118.942 61.8874C118.942 61.2797 118.811 60.8104 118.547 60.4782C118.283 60.1461 117.927 59.9806 117.48 59.9806Z" fill="white"/>
<path d="M126.101 60.2234C125.984 60.1591 125.81 60.1265 125.577 60.1265H124.328V61.5824H125.547C125.788 61.5824 125.969 61.553 126.091 61.4942C126.305 61.3908 126.411 61.1882 126.411 60.8844C126.411 60.5555 126.308 60.3355 126.101 60.2234Z" fill="white"/>
<path d="M132.365 62.5571H133.752L133.067 60.4249L132.365 62.5571Z" fill="white"/>
<path d="M109.975 60.1265H108.955V61.7229H109.975C110.234 61.7229 110.434 61.6575 110.578 61.5269C110.721 61.3973 110.793 61.1915 110.793 60.9105C110.793 60.6285 110.721 60.427 110.578 60.3072C110.434 60.1874 110.234 60.1265 109.975 60.1265Z" fill="white"/>
<path d="M103.016 60.2234C102.899 60.1591 102.725 60.1265 102.492 60.1265H101.243V61.5824H102.462C102.703 61.5824 102.884 61.553 103.006 61.4942C103.22 61.3908 103.326 61.1882 103.326 60.8844C103.326 60.5555 103.223 60.3355 103.016 60.2234Z" fill="white"/>
<path d="M94.3944 59.9806C93.9457 59.9806 93.5875 60.1461 93.3207 60.4761C93.0539 60.8071 92.9199 61.2775 92.9199 61.8874C92.9199 62.4972 93.0539 62.9687 93.3207 63.2987C93.5875 63.6297 93.9457 63.7952 94.3944 63.7952C94.8419 63.7952 95.198 63.6297 95.4616 63.2987C95.7251 62.9687 95.8569 62.4972 95.8569 61.8874C95.8569 61.2797 95.7251 60.8104 95.4616 60.4782C95.198 60.1461 94.8419 59.9806 94.3944 59.9806Z" fill="white"/>
<path d="M154.307 60.1265H153.261V63.6634H154.307C154.842 63.6634 155.215 63.3988 155.426 62.8728C155.541 62.5832 155.599 62.2391 155.599 61.8405C155.599 61.2884 155.513 60.8648 155.34 60.5708C155.166 60.2746 154.822 60.1265 154.307 60.1265Z" fill="white"/>
<path d="M26.5337 60.2234C26.4172 60.1591 26.2429 60.1265 26.0099 60.1265H24.7598V61.5824H25.9783C26.2201 61.5824 26.4019 61.553 26.5228 61.4942C26.7373 61.3908 26.844 61.1882 26.844 60.8844C26.844 60.5555 26.7406 60.3355 26.5337 60.2234Z" fill="white"/>
<path d="M156.315 63.5928C155.923 64.2668 155.318 64.6033 154.498 64.6033H152.163V59.1857H154.498C154.834 59.1912 155.113 59.2304 155.336 59.3033C155.718 59.4286 156.025 59.6583 156.26 59.9915C156.449 60.2605 156.577 60.5524 156.646 60.866C156.715 61.1796 156.75 61.478 156.75 61.7633C156.75 62.4831 156.604 63.0929 156.315 63.5928ZM149.023 64.6033H144.917V59.1857H148.89V60.1462H146.024V61.2961H148.655V62.237H146.024V63.6298H149.023V64.6033ZM141.964 60.1462H140.345V64.6033H139.204V60.1462H137.576V59.1857H141.964V60.1462ZM134.409 64.6033L134.051 63.4904H132.057L131.69 64.6033H130.505L132.439 59.1857H133.719L135.636 64.6033H134.409ZM127.635 64.6033H126.386C126.351 64.4835 126.327 64.3866 126.312 64.3136C126.283 64.1612 126.268 64.0055 126.264 63.8465L126.258 63.3434C126.252 62.9971 126.192 62.7673 126.078 62.6519C125.964 62.5375 125.749 62.4798 125.433 62.4798H124.328V64.6033H123.222V59.1857H125.812C126.183 59.1944 126.468 59.2402 126.667 59.3262C126.867 59.4111 127.036 59.5374 127.175 59.7051C127.289 59.8424 127.381 59.9937 127.447 60.1603C127.514 60.3269 127.547 60.5175 127.547 60.7299C127.547 60.9869 127.482 61.2406 127.352 61.4889C127.223 61.7382 127.008 61.9136 126.71 62.017C126.959 62.1161 127.137 62.2599 127.24 62.445C127.345 62.6301 127.397 62.9121 127.397 63.2922V63.6559C127.397 63.9031 127.407 64.0708 127.426 64.159C127.457 64.2984 127.526 64.4019 127.635 64.4683V64.6033ZM119.255 64.122C118.845 64.5434 118.254 64.7547 117.48 64.7547C116.705 64.7547 116.113 64.5434 115.705 64.122C115.156 63.6058 114.881 62.8599 114.881 61.8874C114.881 60.8954 115.156 60.1505 115.705 59.6529C116.113 59.2314 116.705 59.0213 117.48 59.0213C118.254 59.0213 118.845 59.2314 119.255 59.6529C119.801 60.1505 120.074 60.8954 120.074 61.8874C120.074 62.8599 119.801 63.6058 119.255 64.122ZM111.441 62.2588C111.124 62.5234 110.671 62.6562 110.083 62.6562H108.955V64.6033H107.83V59.1857H110.156C110.693 59.1857 111.12 59.3262 111.439 59.605C111.758 59.8848 111.917 60.3171 111.917 60.903C111.917 61.5422 111.759 61.9942 111.441 62.2588ZM104.55 64.6033H103.301C103.266 64.4835 103.243 64.3866 103.227 64.3136C103.198 64.1612 103.182 64.0055 103.179 63.8465L103.173 63.3434C103.167 62.9971 103.109 62.7673 102.993 62.6519C102.879 62.5375 102.664 62.4798 102.348 62.4798H101.243V64.6033H100.137V59.1857H102.727C103.099 59.1944 103.383 59.2402 103.582 59.3262C103.783 59.4111 103.951 59.5374 104.09 59.7051C104.204 59.8424 104.296 59.9937 104.362 60.1603C104.429 60.3269 104.462 60.5175 104.462 60.7299C104.462 60.9869 104.398 61.2406 104.267 61.4889C104.138 61.7382 103.923 61.9136 103.625 62.017C103.874 62.1161 104.052 62.2599 104.155 62.445C104.26 62.6301 104.312 62.9121 104.312 63.2922V63.6559C104.312 63.9031 104.322 64.0708 104.341 64.159C104.372 64.2984 104.441 64.4019 104.55 64.4683V64.6033ZM96.1697 64.122C95.7602 64.5434 95.1689 64.7547 94.3947 64.7547C93.6204 64.7547 93.028 64.5434 92.6197 64.122C92.0708 63.6058 91.7964 62.8599 91.7964 61.8874C91.7964 60.8954 92.0708 60.1505 92.6197 59.6529C93.028 59.2314 93.6204 59.0213 94.3947 59.0213C95.1689 59.0213 95.7602 59.2314 96.1697 59.6529C96.7164 60.1505 96.9886 60.8954 96.9886 61.8874C96.9886 62.8599 96.7164 63.6058 96.1697 64.122ZM85.5948 63.3227C85.8409 63.6254 86.1534 63.7768 86.5324 63.7768C86.92 63.7768 87.2162 63.6472 87.4199 63.3869C87.5331 63.2475 87.6257 63.0385 87.6997 62.7586H88.8246C88.7277 63.3488 88.4794 63.8301 88.0809 64.1993C87.6823 64.5696 87.1716 64.7547 86.5487 64.7547C85.7777 64.7547 85.1722 64.5042 84.7312 64.0044C84.2902 63.5024 84.0691 62.8141 84.0691 61.9386C84.0691 60.9934 84.3196 60.2649 84.8216 59.7531C85.2583 59.3066 85.8136 59.0833 86.4877 59.0833C87.3894 59.0833 88.0482 59.3828 88.4653 59.9796C88.695 60.3161 88.8192 60.6525 88.8355 60.9912H87.7041C87.6322 60.731 87.5396 60.5349 87.4264 60.4032C87.2249 60.168 86.9266 60.0503 86.5302 60.0503C86.1273 60.0503 85.8093 60.2159 85.5762 60.548C85.3432 60.8801 85.2267 61.3495 85.2267 61.9582C85.2267 62.5648 85.3497 63.02 85.5948 63.3227ZM80.9841 64.6033H79.8526L77.6475 60.7604V64.6033H76.5923V59.1857H77.7793L79.9289 62.9633V59.1857H80.9841V64.6033ZM73.2938 64.6033H72.1689V59.1857H73.2938V64.6033ZM61.4426 64.2527C61.0593 64.5794 60.5192 64.7427 59.8211 64.7427C59.1079 64.7427 58.5471 64.5826 58.1376 64.2603C57.7292 63.938 57.5256 63.4947 57.5256 62.9317H58.6059C58.6407 63.1789 58.7093 63.3641 58.8117 63.486C58.999 63.7093 59.3213 63.8203 59.7765 63.8203C60.0487 63.8203 60.2709 63.792 60.4408 63.7321C60.7631 63.62 60.9243 63.4109 60.9243 63.1038C60.9243 62.9252 60.8459 62.7869 60.688 62.6889C60.529 62.5931 60.2785 62.5081 59.9355 62.4352L59.3485 62.3067C58.7725 62.1793 58.3761 62.041 58.1605 61.8918C57.7957 61.6413 57.6127 61.2504 57.6127 60.719C57.6127 60.2333 57.7924 59.8315 58.1485 59.5102C58.5057 59.189 59.0306 59.0278 59.7231 59.0278C60.3003 59.0278 60.7936 59.1803 61.202 59.483C61.6092 59.7846 61.8237 60.2235 61.8433 60.7996H60.7555C60.7359 60.474 60.59 60.242 60.3188 60.1048C60.138 60.0144 59.9126 59.9687 59.6447 59.9687C59.3453 59.9687 59.1068 60.0286 58.9282 60.1462C58.7496 60.2638 58.6603 60.4271 58.6603 60.6384C58.6603 60.8322 58.7485 60.976 58.9249 61.0718C59.0371 61.136 59.2777 61.2101 59.6447 61.2961L60.5954 61.5205C61.0114 61.6185 61.3239 61.7491 61.5319 61.9136C61.8542 62.1684 62.0165 62.5375 62.0165 63.02C62.0165 63.5143 61.8248 63.9249 61.4426 64.2527ZM54.6497 64.6033H50.5443V59.1857H54.5168V60.1462H51.6506V61.2961H54.2816V62.237H51.6506V63.6298H54.6497V64.6033ZM44.1085 63.3227C44.3546 63.6254 44.666 63.7768 45.045 63.7768C45.4327 63.7768 45.7289 63.6472 45.9325 63.3869C46.0457 63.2475 46.1394 63.0385 46.2134 62.7586H47.3383C47.2403 63.3488 46.9931 63.8301 46.5946 64.1993C46.196 64.5696 45.6842 64.7547 45.0624 64.7547C44.2914 64.7547 43.6849 64.5042 43.2438 64.0044C42.8028 63.5024 42.5817 62.8141 42.5817 61.9386C42.5817 60.9934 42.8333 60.2649 43.3353 59.7531C43.7709 59.3066 44.3263 59.0833 45.0003 59.0833C45.902 59.0833 46.5608 59.3828 46.9779 59.9796C47.2088 60.3161 47.3318 60.6525 47.3492 60.9912H46.2167C46.1448 60.731 46.0523 60.5349 45.9401 60.4032C45.7387 60.168 45.4392 60.0503 45.0428 60.0503C44.6399 60.0503 44.3219 60.2159 44.0889 60.548C43.8558 60.8801 43.7404 61.3495 43.7404 61.9582C43.7404 62.5648 43.8624 63.02 44.1085 63.3227ZM39.5011 64.6033H38.3762V59.1857H39.5011V64.6033ZM33.6882 64.6033H32.6188L30.7872 59.1857H31.9959L33.172 63.2987L34.359 59.1857H35.5351L33.6882 64.6033ZM28.068 64.6033H26.8179C26.7841 64.4835 26.7591 64.3866 26.7449 64.3136C26.7155 64.1612 26.6992 64.0055 26.697 63.8465L26.6894 63.3434C26.685 62.9971 26.6251 62.7673 26.5108 62.6519C26.3965 62.5375 26.1808 62.4798 25.8661 62.4798H24.7597V64.6033H23.6544V59.1857H26.2451C26.6153 59.1944 26.9007 59.2402 27.0999 59.3262C27.2992 59.4111 27.468 59.5374 27.6074 59.7051C27.7217 59.8424 27.8121 59.9937 27.8796 60.1603C27.9461 60.3269 27.9798 60.5175 27.9798 60.7299C27.9798 60.9869 27.9145 61.2406 27.7849 61.4889C27.6553 61.7382 27.4408 61.9136 27.1413 62.017C27.3918 62.1161 27.5682 62.2599 27.6727 62.445C27.7773 62.6301 27.8295 62.9121 27.8295 63.2922V63.6559C27.8295 63.9031 27.8393 64.0708 27.8589 64.159C27.8883 64.2984 27.958 64.4019 28.068 64.4683V64.6033ZM20.4877 64.6033H16.3823V59.1857H20.356V60.1462H17.4887V61.2961H20.1208V62.237H17.4887V63.6298H20.4877V64.6033ZM12.7234 64.2527C12.3412 64.5794 11.8011 64.7427 11.102 64.7427C10.3887 64.7427 9.82786 64.5826 9.4195 64.2603C9.01114 63.938 8.80642 63.4947 8.80642 62.9317H9.88667C9.92152 63.1789 9.99121 63.3641 10.0936 63.486C10.2809 63.7093 10.6021 63.8203 11.0573 63.8203C11.3306 63.8203 11.5517 63.792 11.7216 63.7321C12.045 63.62 12.2062 63.4109 12.2062 63.1038C12.2062 62.9252 12.1267 62.7869 11.9688 62.6889C11.8109 62.5931 11.5604 62.5081 11.2174 62.4352L10.6304 62.3067C10.0544 62.1793 9.65799 62.041 9.44237 61.8918C9.07757 61.6413 8.89462 61.2504 8.89462 60.719C8.89462 60.2333 9.07321 59.8315 9.43039 59.5102C9.78757 59.189 10.3125 59.0278 11.0039 59.0278C11.5822 59.0278 12.0755 59.1803 12.4828 59.483C12.8911 59.7846 13.1046 60.2235 13.1252 60.7996H12.0374C12.0167 60.474 11.8708 60.242 11.5996 60.1048C11.4188 60.0144 11.1945 59.9687 10.9255 59.9687C10.6261 59.9687 10.3876 60.0286 10.2101 60.1462C10.0315 60.2638 9.94221 60.4271 9.94221 60.6384C9.94221 60.8322 10.0304 60.976 10.2057 61.0718C10.319 61.136 10.5586 61.2101 10.9255 61.2961L11.8762 61.5205C12.2933 61.6185 12.6047 61.7491 12.8127 61.9136C13.1361 62.1684 13.2973 62.5375 13.2973 63.02C13.2973 63.5143 13.1067 63.9249 12.7234 64.2527ZM0.572754 66.8128H165V56.9631H0.572754V66.8128Z" fill="white"/>
</svg>
