<svg width="1200" height="720" viewBox="0 0 1200 720" fill="none" xmlns="http://www.w3.org/2000/svg">
  <defs>
    <linearGradient id="bg" x1="0" y1="0" x2="1200" y2="720" gradientUnits="userSpaceOnUse">
      <stop stop-color="#1A1452"/>
      <stop offset="1" stop-color="#3B1E8C"/>
    </linearGradient>
    <linearGradient id="cube" x1="0" y1="0" x2="1" y2="1">
      <stop stop-color="#D7C6FF"/>
      <stop offset="1" stop-color="#A78BFA"/>
    </linearGradient>
  </defs>
  <rect width="1200" height="720" fill="url(#bg)"/>
  <g opacity="0.32" stroke="#C4B5FD" stroke-width="2">
    <path d="M140 180H1060"/>
    <path d="M140 300H1060"/>
    <path d="M140 420H1060"/>
    <path d="M140 540H1060"/>
    <path d="M220 120V600"/>
    <path d="M380 120V600"/>
    <path d="M540 120V600"/>
    <path d="M700 120V600"/>
    <path d="M860 120V600"/>
    <path d="M1020 120V600"/>
  </g>
  <g stroke="#D8CBFF" stroke-width="5" stroke-linecap="round">
    <path d="M320 360H430"/>
    <path d="M540 360H650"/>
    <path d="M760 360H870"/>
  </g>
  <g stroke="url(#cube)" stroke-width="5" stroke-linejoin="round">
    <path d="M250 315L320 275L390 315V395L320 435L250 395V315Z"/>
    <path d="M470 315L540 275L610 315V395L540 435L470 395V315Z"/>
    <path d="M690 315L760 275L830 315V395L760 435L690 395V315Z"/>
    <path d="M910 315L980 275L1050 315V395L980 435L910 395V315Z"/>
    <path d="M320 275V355L390 395"/>
    <path d="M540 275V355L610 395"/>
    <path d="M760 275V355L830 395"/>
    <path d="M980 275V355L1050 395"/>
  </g>
  <g fill="#D9CCFF">
    <circle cx="320" cy="355" r="6"/>
    <circle cx="540" cy="355" r="6"/>
    <circle cx="760" cy="355" r="6"/>
    <circle cx="980" cy="355" r="6"/>
  </g>
  <g opacity="0.5" fill="#E6DEFF">
    <circle cx="180" cy="140" r="2.5"/>
    <circle cx="1060" cy="160" r="2.5"/>
    <circle cx="1120" cy="500" r="2"/>
    <circle cx="100" cy="510" r="2"/>
  </g>
</svg>
